<svg width="215" height="253" viewBox="0 0 215 253" fill="none" xmlns="http://www.w3.org/2000/svg">
<path d="M14.976 16.728C17.248 16.728 19.248 16.888 20.976 17.208C22.704 17.496 24.144 17.976 25.296 18.648C26.48 19.32 27.36 20.216 27.936 21.336C28.544 22.424 28.848 23.784 28.848 25.416C28.848 27.368 28.4 29.016 27.504 30.36C26.608 31.704 25.296 32.52 23.568 32.808V33.048C24.432 33.24 25.232 33.512 25.968 33.864C26.704 34.216 27.344 34.696 27.888 35.304C28.464 35.912 28.912 36.696 29.232 37.656C29.552 38.584 29.712 39.72 29.712 41.064C29.712 42.6 29.408 43.992 28.8 45.24C28.224 46.456 27.392 47.496 26.304 48.36C25.216 49.224 23.888 49.88 22.32 50.328C20.784 50.776 19.056 51 17.136 51H4.32V16.728H14.976ZM15.792 30.312C17.904 30.312 19.36 29.992 20.16 29.352C20.992 28.712 21.408 27.72 21.408 26.376C21.408 25.032 20.928 24.088 19.968 23.544C19.04 22.968 17.52 22.68 15.408 22.68H11.568V30.312H15.792ZM11.568 36.072V45H16.32C18.496 45 20.016 44.584 20.88 43.752C21.744 42.888 22.176 41.752 22.176 40.344C22.176 39.064 21.728 38.04 20.832 37.272C19.968 36.472 18.384 36.072 16.08 36.072H11.568ZM51.114 22.296C48.33 22.296 46.202 23.336 44.73 25.416C43.258 27.496 42.522 30.344 42.522 33.96C42.522 37.608 43.194 40.44 44.538 42.456C45.914 44.44 48.106 45.432 51.114 45.432C52.49 45.432 53.882 45.272 55.29 44.952C56.698 44.632 58.218 44.184 59.85 43.608V49.704C58.346 50.312 56.858 50.76 55.386 51.048C53.914 51.336 52.266 51.48 50.442 51.48C46.89 51.48 43.978 50.76 41.706 49.32C39.434 47.848 37.754 45.8 36.666 43.176C35.578 40.52 35.034 37.432 35.034 33.912C35.034 30.456 35.658 27.4 36.906 24.744C38.154 22.088 39.962 20.008 42.33 18.504C44.73 17 47.658 16.248 51.114 16.248C52.81 16.248 54.506 16.472 56.202 16.92C57.93 17.336 59.578 17.912 61.146 18.648L58.794 24.552C57.514 23.944 56.218 23.416 54.906 22.968C53.626 22.52 52.362 22.296 51.114 22.296ZM99.8093 41.496C99.8093 44.536 98.7053 46.968 96.4973 48.792C94.3213 50.584 91.2173 51.48 87.1853 51.48C83.5693 51.48 80.3373 50.792 77.4893 49.416V42.648C79.1213 43.352 80.8013 44.008 82.5293 44.616C84.2893 45.192 86.0333 45.48 87.7613 45.48C89.5533 45.48 90.8173 45.144 91.5533 44.472C92.3213 43.768 92.7053 42.888 92.7053 41.832C92.7053 40.968 92.4013 40.232 91.7933 39.624C91.2173 39.016 90.4333 38.456 89.4413 37.944C88.4493 37.4 87.3133 36.824 86.0333 36.216C85.2333 35.832 84.3693 35.384 83.4413 34.872C82.5133 34.328 81.6173 33.672 80.7533 32.904C79.9213 32.104 79.2333 31.144 78.6893 30.024C78.1453 28.904 77.8733 27.56 77.8733 25.992C77.8733 22.92 78.9133 20.536 80.9933 18.84C83.0733 17.112 85.9053 16.248 89.4893 16.248C91.2813 16.248 92.9773 16.456 94.5773 16.872C96.1773 17.288 97.8733 17.88 99.6653 18.648L97.3133 24.312C95.7453 23.672 94.3373 23.176 93.0893 22.824C91.8413 22.472 90.5613 22.296 89.2493 22.296C87.8733 22.296 86.8173 22.616 86.0813 23.256C85.3453 23.896 84.9773 24.728 84.9773 25.752C84.9773 26.968 85.5213 27.928 86.6093 28.632C87.6973 29.336 89.3133 30.2 91.4573 31.224C93.2173 32.056 94.7053 32.92 95.9213 33.816C97.1693 34.712 98.1293 35.768 98.8013 36.984C99.4733 38.2 99.8093 39.704 99.8093 41.496ZM115.447 34.824L120.007 34.68V33.528C120.007 32.152 119.639 31.144 118.903 30.504C118.199 29.864 117.207 29.544 115.927 29.544C114.647 29.544 113.399 29.736 112.183 30.12C110.967 30.472 109.751 30.92 108.535 31.464L106.183 26.616C107.559 25.912 109.111 25.352 110.839 24.936C112.567 24.488 114.359 24.264 116.215 24.264C119.767 24.264 122.471 25.016 124.327 26.52C126.183 28.024 127.111 30.36 127.111 33.528V51H122.119L120.727 47.448H120.535C119.959 48.152 119.383 48.76 118.807 49.272C118.263 49.784 117.655 50.2 116.983 50.52C116.311 50.84 115.559 51.08 114.727 51.24C113.895 51.4 112.935 51.48 111.847 51.48C110.695 51.48 109.623 51.32 108.631 51C107.639 50.648 106.775 50.136 106.039 49.464C105.335 48.792 104.775 47.944 104.359 46.92C103.943 45.864 103.735 44.616 103.735 43.176C103.735 40.392 104.711 38.344 106.663 37.032C108.615 35.72 111.543 34.984 115.447 34.824ZM111.079 43.224C111.079 44.312 111.399 45.096 112.039 45.576C112.679 46.024 113.511 46.248 114.535 46.248C116.071 46.248 117.367 45.8 118.423 44.904C119.479 43.976 120.007 42.68 120.007 41.016V38.856L117.223 38.952C114.919 39.016 113.319 39.432 112.423 40.2C111.527 40.968 111.079 41.976 111.079 43.224ZM134.432 24.792H139.904L140.864 28.152H141.248C142.08 26.808 143.216 25.832 144.656 25.224C146.128 24.616 147.68 24.312 149.312 24.312C152.128 24.312 154.384 25.08 156.08 26.616C157.776 28.12 158.624 30.552 158.624 33.912V51H151.472V35.688C151.472 33.768 151.136 32.344 150.464 31.416C149.792 30.488 148.72 30.024 147.248 30.024C145.072 30.024 143.584 30.776 142.784 32.28C141.984 33.752 141.584 35.88 141.584 38.664V51H134.432V24.792ZM184.266 43.224C184.266 45.88 183.322 47.928 181.434 49.368C179.578 50.776 176.794 51.48 173.082 51.48C171.258 51.48 169.69 51.352 168.378 51.096C167.066 50.872 165.754 50.488 164.442 49.944V44.04C165.85 44.68 167.37 45.208 169.002 45.624C170.634 46.04 172.074 46.248 173.322 46.248C174.698 46.248 175.69 46.04 176.298 45.624C176.906 45.208 177.21 44.664 177.21 43.992C177.21 43.544 177.082 43.144 176.826 42.792C176.602 42.44 176.09 42.04 175.29 41.592C174.49 41.144 173.242 40.568 171.546 39.864C169.882 39.16 168.522 38.472 167.466 37.8C166.442 37.096 165.674 36.264 165.162 35.304C164.65 34.312 164.394 33.08 164.394 31.608C164.394 29.176 165.338 27.352 167.226 26.136C169.114 24.92 171.626 24.312 174.762 24.312C176.394 24.312 177.946 24.472 179.418 24.792C180.89 25.112 182.41 25.64 183.978 26.376L181.818 31.512C180.538 30.968 179.322 30.52 178.17 30.168C177.018 29.784 175.85 29.592 174.666 29.592C172.554 29.592 171.498 30.168 171.498 31.32C171.498 31.736 171.626 32.12 171.882 32.472C172.17 32.792 172.698 33.144 173.466 33.528C174.266 33.912 175.434 34.424 176.97 35.064C178.474 35.672 179.77 36.312 180.858 36.984C181.946 37.624 182.778 38.44 183.354 39.432C183.962 40.424 184.266 41.688 184.266 43.224Z" fill="#2D2D2D"/>
<path d="M1.8 103V88.72H4.82V94.32H10.48V88.72H13.5V103H10.48V96.84H4.82V103H1.8ZM21.353 91.88C22.8596 91.88 24.053 92.3133 24.933 93.18C25.813 94.0333 26.253 95.2533 26.253 96.84V98.28H19.213C19.2396 99.12 19.4863 99.78 19.953 100.26C20.433 100.74 21.093 100.98 21.933 100.98C22.6263 100.98 23.2596 100.913 23.833 100.78C24.4196 100.633 25.0196 100.413 25.633 100.12V102.42C25.0863 102.687 24.5196 102.88 23.933 103C23.3463 103.133 22.633 103.2 21.793 103.2C20.6996 103.2 19.733 103 18.893 102.6C18.053 102.187 17.393 101.573 16.913 100.76C16.433 99.9333 16.193 98.8867 16.193 97.62C16.193 96.3533 16.4063 95.2933 16.833 94.44C17.273 93.5867 17.8796 92.9467 18.653 92.52C19.4263 92.0933 20.3263 91.88 21.353 91.88ZM21.373 94C20.7863 94 20.3063 94.1867 19.933 94.56C19.5596 94.9333 19.3396 95.5133 19.273 96.3H23.453C23.4396 95.6467 23.2596 95.1 22.913 94.66C22.5796 94.22 22.0663 94 21.373 94ZM32.8294 96.26L34.7294 96.2V95.72C34.7294 95.1467 34.576 94.7267 34.2694 94.46C33.976 94.1933 33.5627 94.06 33.0294 94.06C32.496 94.06 31.976 94.14 31.4694 94.3C30.9627 94.4467 30.456 94.6333 29.9494 94.86L28.9694 92.84C29.5427 92.5467 30.1894 92.3133 30.9094 92.14C31.6294 91.9533 32.376 91.86 33.1494 91.86C34.6294 91.86 35.756 92.1733 36.5294 92.8C37.3027 93.4267 37.6894 94.4 37.6894 95.72V103H35.6094L35.0294 101.52H34.9494C34.7094 101.813 34.4694 102.067 34.2294 102.28C34.0027 102.493 33.7494 102.667 33.4694 102.8C33.1894 102.933 32.876 103.033 32.5294 103.1C32.1827 103.167 31.7827 103.2 31.3294 103.2C30.8494 103.2 30.4027 103.133 29.9894 103C29.576 102.853 29.216 102.64 28.9094 102.36C28.616 102.08 28.3827 101.727 28.2094 101.3C28.036 100.86 27.9494 100.34 27.9494 99.74C27.9494 98.58 28.356 97.7267 29.1694 97.18C29.9827 96.6333 31.2027 96.3267 32.8294 96.26ZM31.0094 99.76C31.0094 100.213 31.1427 100.54 31.4094 100.74C31.676 100.927 32.0227 101.02 32.4494 101.02C33.0894 101.02 33.6294 100.833 34.0694 100.46C34.5094 100.073 34.7294 99.5333 34.7294 98.84V97.94L33.5694 97.98C32.6094 98.0067 31.9427 98.18 31.5694 98.5C31.196 98.82 31.0094 99.24 31.0094 99.76ZM44.1997 103.2C42.9864 103.2 41.993 102.727 41.2197 101.78C40.4597 100.82 40.0797 99.4133 40.0797 97.56C40.0797 95.6933 40.4664 94.28 41.2397 93.32C42.013 92.36 43.0264 91.88 44.2797 91.88C45.0664 91.88 45.713 92.0333 46.2197 92.34C46.7264 92.6467 47.1264 93.0267 47.4197 93.48H47.5197C47.4797 93.2667 47.433 92.96 47.3797 92.56C47.3264 92.1467 47.2997 91.7267 47.2997 91.3V87.8H50.2797V103H47.9997L47.4197 101.58H47.2997C47.0064 102.033 46.613 102.42 46.1197 102.74C45.6264 103.047 44.9864 103.2 44.1997 103.2ZM45.2397 100.82C46.053 100.82 46.6264 100.58 46.9597 100.1C47.293 99.6067 47.473 98.8733 47.4997 97.9V97.58C47.4997 96.5267 47.333 95.72 46.9997 95.16C46.6797 94.5867 46.0797 94.3 45.1997 94.3C44.5464 94.3 44.033 94.5867 43.6597 95.16C43.2864 95.72 43.0997 96.5333 43.0997 97.6C43.0997 98.6667 43.2864 99.4733 43.6597 100.02C44.033 100.553 44.5597 100.82 45.2397 100.82ZM54.8959 87.8C55.3359 87.8 55.7159 87.9067 56.0359 88.12C56.3559 88.32 56.5159 88.7 56.5159 89.26C56.5159 89.8067 56.3559 90.1867 56.0359 90.4C55.7159 90.6133 55.3359 90.72 54.8959 90.72C54.4426 90.72 54.0559 90.6133 53.7359 90.4C53.4293 90.1867 53.2759 89.8067 53.2759 89.26C53.2759 88.7 53.4293 88.32 53.7359 88.12C54.0559 87.9067 54.4426 87.8 54.8959 87.8ZM56.3759 92.08V103H53.3959V92.08H56.3759ZM59.4897 92.08H61.7697L62.1697 93.48H62.3297C62.6764 92.92 63.1497 92.5133 63.7497 92.26C64.363 92.0067 65.0097 91.88 65.6897 91.88C66.863 91.88 67.803 92.2 68.5097 92.84C69.2164 93.4667 69.5697 94.48 69.5697 95.88V103H66.5897V96.62C66.5897 95.82 66.4497 95.2267 66.1697 94.84C65.8897 94.4533 65.443 94.26 64.8297 94.26C63.923 94.26 63.303 94.5733 62.9697 95.2C62.6364 95.8133 62.4697 96.7 62.4697 97.86V103H59.4897V92.08ZM76.1742 91.88C77.5209 91.88 78.5742 92.4133 79.3342 93.48H79.4142L79.6542 92.08H82.1742V103.02C82.1742 104.58 81.7142 105.767 80.7942 106.58C79.8742 107.393 78.5142 107.8 76.7142 107.8C75.9409 107.8 75.2209 107.753 74.5542 107.66C73.9009 107.567 73.2609 107.4 72.6342 107.16V104.78C73.9676 105.34 75.3876 105.62 76.8942 105.62C78.4276 105.62 79.1942 104.793 79.1942 103.14V102.92C79.1942 102.707 79.2009 102.48 79.2142 102.24C79.2276 101.987 79.2476 101.767 79.2742 101.58H79.1942C78.8209 102.153 78.3742 102.567 77.8542 102.82C77.3342 103.073 76.7476 103.2 76.0942 103.2C74.8009 103.2 73.7876 102.707 73.0542 101.72C72.3342 100.72 71.9742 99.3333 71.9742 97.56C71.9742 95.7733 72.3476 94.38 73.0942 93.38C73.8409 92.38 74.8676 91.88 76.1742 91.88ZM77.1142 94.3C75.7142 94.3 75.0142 95.4 75.0142 97.6C75.0142 99.7733 75.7276 100.86 77.1542 100.86C77.9142 100.86 78.4742 100.647 78.8342 100.22C79.2076 99.78 79.3942 99.02 79.3942 97.94V97.58C79.3942 96.4067 79.2142 95.5667 78.8542 95.06C78.4942 94.5533 77.9142 94.3 77.1142 94.3ZM97.1858 103H94.1658V94.74C94.1658 94.4067 94.1724 93.96 94.1858 93.4C94.1991 92.8267 94.2191 92.3267 94.2458 91.9C94.1791 91.98 94.0324 92.1267 93.8058 92.34C93.5924 92.54 93.3924 92.72 93.2058 92.88L91.5658 94.2L90.1058 92.38L94.7058 88.72H97.1858V103ZM106.166 98.86V96.42H111.406V98.86H106.166ZM127.987 103H118.007V100.9L121.587 97.28C122.307 96.5333 122.887 95.9133 123.327 95.42C123.767 94.9133 124.087 94.46 124.287 94.06C124.487 93.6467 124.587 93.2067 124.587 92.74C124.587 92.1667 124.427 91.74 124.107 91.46C123.8 91.18 123.38 91.04 122.847 91.04C122.3 91.04 121.767 91.1667 121.247 91.42C120.727 91.6733 120.18 92.0333 119.607 92.5L117.967 90.56C118.367 90.2133 118.8 89.8867 119.267 89.58C119.734 89.26 120.267 89.0067 120.867 88.82C121.48 88.62 122.214 88.52 123.067 88.52C124 88.52 124.8 88.6933 125.467 89.04C126.147 89.3733 126.667 89.8333 127.027 90.42C127.4 90.9933 127.587 91.6467 127.587 92.38C127.587 93.1667 127.427 93.8867 127.107 94.54C126.8 95.1933 126.347 95.84 125.747 96.48C125.16 97.12 124.447 97.8267 123.607 98.6L121.767 100.32V100.46H127.987V103ZM139.352 95.86C139.352 97.3933 139.186 98.7067 138.852 99.8C138.532 100.893 138.006 101.733 137.272 102.32C136.539 102.907 135.566 103.2 134.352 103.2C132.632 103.2 131.372 102.553 130.572 101.26C129.772 99.9667 129.372 98.1667 129.372 95.86C129.372 94.3267 129.532 93.0133 129.852 91.92C130.172 90.8133 130.699 89.9667 131.432 89.38C132.166 88.7933 133.139 88.5 134.352 88.5C136.059 88.5 137.319 89.1467 138.132 90.44C138.946 91.7333 139.352 93.54 139.352 95.86ZM132.372 95.86C132.372 97.4867 132.512 98.7133 132.792 99.54C133.072 100.353 133.592 100.76 134.352 100.76C135.099 100.76 135.619 100.353 135.912 99.54C136.206 98.7267 136.352 97.5 136.352 95.86C136.352 94.2333 136.206 93.0067 135.912 92.18C135.619 91.3533 135.099 90.94 134.352 90.94C133.592 90.94 133.072 91.3533 132.792 92.18C132.512 93.0067 132.372 94.2333 132.372 95.86ZM141.658 92.08H144.078L144.498 93.5H144.638C144.931 93.06 145.318 92.68 145.798 92.36C146.291 92.04 146.938 91.88 147.738 91.88C148.351 91.88 148.911 92 149.418 92.24C149.924 92.48 150.358 92.84 150.718 93.32C151.078 93.7867 151.358 94.3733 151.558 95.08C151.758 95.7867 151.858 96.6 151.858 97.52C151.858 98.4533 151.751 99.2733 151.538 99.98C151.338 100.687 151.051 101.28 150.678 101.76C150.304 102.24 149.858 102.6 149.338 102.84C148.831 103.08 148.271 103.2 147.658 103.2C146.871 103.2 146.244 103.06 145.778 102.78C145.311 102.487 144.931 102.16 144.638 101.8H144.478C144.531 102.08 144.571 102.353 144.598 102.62C144.624 102.887 144.638 103.147 144.638 103.4V107.8H141.658V92.08ZM144.638 97.18V97.5C144.638 98.5533 144.791 99.3667 145.098 99.94C145.418 100.5 145.991 100.78 146.818 100.78C147.498 100.78 147.998 100.5 148.318 99.94C148.651 99.38 148.818 98.56 148.818 97.48C148.818 95.3333 148.138 94.26 146.778 94.26C146.004 94.26 145.458 94.5067 145.138 95C144.818 95.48 144.651 96.2067 144.638 97.18ZM156.554 97.42L153.034 92.08H156.414L158.534 95.56L160.674 92.08H164.054L160.494 97.42L164.214 103H160.834L158.534 99.26L156.234 103H152.854L156.554 97.42ZM175.752 88.72C176.698 88.72 177.532 88.7867 178.252 88.92C178.972 89.04 179.572 89.24 180.052 89.52C180.545 89.8 180.912 90.1733 181.152 90.64C181.405 91.0933 181.532 91.66 181.532 92.34C181.532 93.1533 181.345 93.84 180.972 94.4C180.598 94.96 180.052 95.3 179.332 95.42V95.52C179.692 95.6 180.025 95.7133 180.332 95.86C180.638 96.0067 180.905 96.2067 181.132 96.46C181.372 96.7133 181.558 97.04 181.692 97.44C181.825 97.8267 181.892 98.3 181.892 98.86C181.892 99.5 181.765 100.08 181.512 100.6C181.272 101.107 180.925 101.54 180.472 101.9C180.018 102.26 179.465 102.533 178.812 102.72C178.172 102.907 177.452 103 176.652 103H171.312V88.72H175.752ZM176.092 94.38C176.972 94.38 177.578 94.2467 177.912 93.98C178.258 93.7133 178.432 93.3 178.432 92.74C178.432 92.18 178.232 91.7867 177.832 91.56C177.445 91.32 176.812 91.2 175.932 91.2H174.332V94.38H176.092ZM174.332 96.78V100.5H176.312C177.218 100.5 177.852 100.327 178.212 99.98C178.572 99.62 178.752 99.1467 178.752 98.56C178.752 98.0267 178.565 97.6 178.192 97.28C177.832 96.9467 177.172 96.78 176.212 96.78H174.332ZM194.429 97.52C194.429 99.3333 193.949 100.733 192.989 101.72C192.043 102.707 190.749 103.2 189.109 103.2C188.096 103.2 187.189 102.98 186.389 102.54C185.603 102.1 184.983 101.46 184.529 100.62C184.076 99.7667 183.849 98.7333 183.849 97.52C183.849 95.7067 184.323 94.3133 185.269 93.34C186.216 92.3667 187.516 91.88 189.169 91.88C190.196 91.88 191.103 92.1 191.889 92.54C192.676 92.98 193.296 93.62 193.749 94.46C194.203 95.3 194.429 96.32 194.429 97.52ZM186.889 97.52C186.889 98.6 187.063 99.42 187.409 99.98C187.769 100.527 188.349 100.8 189.149 100.8C189.936 100.8 190.503 100.527 190.849 99.98C191.209 99.42 191.389 98.6 191.389 97.52C191.389 96.44 191.209 95.6333 190.849 95.1C190.503 94.5533 189.929 94.28 189.129 94.28C188.343 94.28 187.769 94.5533 187.409 95.1C187.063 95.6333 186.889 96.44 186.889 97.52ZM199.872 103H196.892V87.8H199.872V103ZM206.446 103.2C205.232 103.2 204.239 102.727 203.466 101.78C202.706 100.82 202.326 99.4133 202.326 97.56C202.326 95.6933 202.712 94.28 203.486 93.32C204.259 92.36 205.272 91.88 206.526 91.88C207.312 91.88 207.959 92.0333 208.466 92.34C208.972 92.6467 209.372 93.0267 209.666 93.48H209.766C209.726 93.2667 209.679 92.96 209.626 92.56C209.572 92.1467 209.546 91.7267 209.546 91.3V87.8H212.526V103H210.246L209.666 101.58H209.546C209.252 102.033 208.859 102.42 208.366 102.74C207.872 103.047 207.232 103.2 206.446 103.2ZM207.486 100.82C208.299 100.82 208.872 100.58 209.206 100.1C209.539 99.6067 209.719 98.8733 209.746 97.9V97.58C209.746 96.5267 209.579 95.72 209.246 95.16C208.926 94.5867 208.326 94.3 207.446 94.3C206.792 94.3 206.279 94.5867 205.906 95.16C205.532 95.72 205.346 96.5333 205.346 97.6C205.346 98.6667 205.532 99.4733 205.906 100.02C206.279 100.553 206.806 100.82 207.486 100.82Z" fill="#2D2D2D"/>
<path d="M1.44 143V131.576H3.856V136.056H8.384V131.576H10.8V143H8.384V138.072H3.856V143H1.44ZM17.0824 134.104C18.2877 134.104 19.2424 134.451 19.9464 135.144C20.6504 135.827 21.0024 136.803 21.0024 138.072V139.224H15.3704C15.3917 139.896 15.589 140.424 15.9624 140.808C16.3464 141.192 16.8744 141.384 17.5464 141.384C18.101 141.384 18.6077 141.331 19.0664 141.224C19.5357 141.107 20.0157 140.931 20.5064 140.696V142.536C20.069 142.749 19.6157 142.904 19.1464 143C18.677 143.107 18.1064 143.16 17.4344 143.16C16.5597 143.16 15.7864 143 15.1144 142.68C14.4424 142.349 13.9144 141.859 13.5304 141.208C13.1464 140.547 12.9544 139.709 12.9544 138.696C12.9544 137.683 13.125 136.835 13.4664 136.152C13.8184 135.469 14.3037 134.957 14.9224 134.616C15.541 134.275 16.261 134.104 17.0824 134.104ZM17.0984 135.8C16.629 135.8 16.245 135.949 15.9464 136.248C15.6477 136.547 15.4717 137.011 15.4184 137.64H18.7624C18.7517 137.117 18.6077 136.68 18.3304 136.328C18.0637 135.976 17.653 135.8 17.0984 135.8ZM26.2635 137.608L27.7835 137.56V137.176C27.7835 136.717 27.6608 136.381 27.4155 136.168C27.1808 135.955 26.8502 135.848 26.4235 135.848C25.9968 135.848 25.5808 135.912 25.1755 136.04C24.7702 136.157 24.3648 136.307 23.9595 136.488L23.1755 134.872C23.6342 134.637 24.1515 134.451 24.7275 134.312C25.3035 134.163 25.9008 134.088 26.5195 134.088C27.7035 134.088 28.6048 134.339 29.2235 134.84C29.8422 135.341 30.1515 136.12 30.1515 137.176V143H28.4875L28.0235 141.816H27.9595C27.7675 142.051 27.5755 142.253 27.3835 142.424C27.2022 142.595 26.9995 142.733 26.7755 142.84C26.5515 142.947 26.3008 143.027 26.0235 143.08C25.7462 143.133 25.4262 143.16 25.0635 143.16C24.6795 143.16 24.3222 143.107 23.9915 143C23.6608 142.883 23.3728 142.712 23.1275 142.488C22.8928 142.264 22.7062 141.981 22.5675 141.64C22.4288 141.288 22.3595 140.872 22.3595 140.392C22.3595 139.464 22.6848 138.781 23.3355 138.344C23.9862 137.907 24.9622 137.661 26.2635 137.608ZM24.8075 140.408C24.8075 140.771 24.9142 141.032 25.1275 141.192C25.3408 141.341 25.6182 141.416 25.9595 141.416C26.4715 141.416 26.9035 141.267 27.2555 140.968C27.6075 140.659 27.7835 140.227 27.7835 139.672V138.952L26.8555 138.984C26.0875 139.005 25.5542 139.144 25.2555 139.4C24.9568 139.656 24.8075 139.992 24.8075 140.408ZM35.3598 143.16C34.3891 143.16 33.5944 142.781 32.9758 142.024C32.3678 141.256 32.0638 140.131 32.0638 138.648C32.0638 137.155 32.3731 136.024 32.9918 135.256C33.6104 134.488 34.4211 134.104 35.4238 134.104C36.0531 134.104 36.5704 134.227 36.9758 134.472C37.3811 134.717 37.7011 135.021 37.9358 135.384H38.0158C37.9838 135.213 37.9464 134.968 37.9038 134.648C37.8611 134.317 37.8398 133.981 37.8398 133.64V130.84H40.2238V143H38.3998L37.9358 141.864H37.8398C37.6051 142.227 37.2904 142.536 36.8958 142.792C36.5011 143.037 35.9891 143.16 35.3598 143.16ZM36.1918 141.256C36.8424 141.256 37.3011 141.064 37.5678 140.68C37.8344 140.285 37.9784 139.699 37.9998 138.92V138.664C37.9998 137.821 37.8664 137.176 37.5998 136.728C37.3438 136.269 36.8638 136.04 36.1598 136.04C35.6371 136.04 35.2264 136.269 34.9278 136.728C34.6291 137.176 34.4798 137.827 34.4798 138.68C34.4798 139.533 34.6291 140.179 34.9278 140.616C35.2264 141.043 35.6478 141.256 36.1918 141.256ZM43.9168 130.84C44.2688 130.84 44.5728 130.925 44.8288 131.096C45.0848 131.256 45.2128 131.56 45.2128 132.008C45.2128 132.445 45.0848 132.749 44.8288 132.92C44.5728 133.091 44.2688 133.176 43.9168 133.176C43.5541 133.176 43.2448 133.091 42.9888 132.92C42.7434 132.749 42.6208 132.445 42.6208 132.008C42.6208 131.56 42.7434 131.256 42.9888 131.096C43.2448 130.925 43.5541 130.84 43.9168 130.84ZM45.1008 134.264V143H42.7168V134.264H45.1008ZM47.5918 134.264H49.4158L49.7358 135.384H49.8638C50.1411 134.936 50.5198 134.611 50.9998 134.408C51.4904 134.205 52.0078 134.104 52.5518 134.104C53.4904 134.104 54.2424 134.36 54.8078 134.872C55.3731 135.373 55.6558 136.184 55.6558 137.304V143H53.2718V137.896C53.2718 137.256 53.1598 136.781 52.9358 136.472C52.7118 136.163 52.3544 136.008 51.8638 136.008C51.1384 136.008 50.6424 136.259 50.3758 136.76C50.1091 137.251 49.9758 137.96 49.9758 138.888V143H47.5918V134.264ZM60.9394 134.104C62.0167 134.104 62.8594 134.531 63.4674 135.384H63.5314L63.7234 134.264H65.7394V143.016C65.7394 144.264 65.3714 145.213 64.6354 145.864C63.8994 146.515 62.8114 146.84 61.3714 146.84C60.7527 146.84 60.1767 146.803 59.6434 146.728C59.1207 146.653 58.6087 146.52 58.1074 146.328V144.424C59.174 144.872 60.31 145.096 61.5154 145.096C62.742 145.096 63.3554 144.435 63.3554 143.112V142.936C63.3554 142.765 63.3607 142.584 63.3714 142.392C63.382 142.189 63.398 142.013 63.4194 141.864H63.3554C63.0567 142.323 62.6994 142.653 62.2834 142.856C61.8674 143.059 61.398 143.16 60.8754 143.16C59.8407 143.16 59.03 142.765 58.4434 141.976C57.8674 141.176 57.5794 140.067 57.5794 138.648C57.5794 137.219 57.878 136.104 58.4754 135.304C59.0727 134.504 59.894 134.104 60.9394 134.104ZM61.6914 136.04C60.5714 136.04 60.0114 136.92 60.0114 138.68C60.0114 140.419 60.582 141.288 61.7234 141.288C62.3314 141.288 62.7794 141.117 63.0674 140.776C63.366 140.424 63.5154 139.816 63.5154 138.952V138.664C63.5154 137.725 63.3714 137.053 63.0834 136.648C62.7954 136.243 62.3314 136.04 61.6914 136.04ZM79.7646 143H71.7806V141.32L74.6446 138.424C75.2206 137.827 75.6846 137.331 76.0366 136.936C76.3886 136.531 76.6446 136.168 76.8046 135.848C76.9646 135.517 77.0446 135.165 77.0446 134.792C77.0446 134.333 76.9166 133.992 76.6606 133.768C76.4153 133.544 76.0793 133.432 75.6526 133.432C75.2153 133.432 74.7886 133.533 74.3726 133.736C73.9566 133.939 73.5193 134.227 73.0606 134.6L71.7486 133.048C72.0686 132.771 72.4153 132.509 72.7886 132.264C73.162 132.008 73.5886 131.805 74.0686 131.656C74.5593 131.496 75.146 131.416 75.8286 131.416C76.5753 131.416 77.2153 131.555 77.7486 131.832C78.2926 132.099 78.7086 132.467 78.9966 132.936C79.2953 133.395 79.4446 133.917 79.4446 134.504C79.4446 135.133 79.3166 135.709 79.0606 136.232C78.8153 136.755 78.4526 137.272 77.9726 137.784C77.5033 138.296 76.9326 138.861 76.2606 139.48L74.7886 140.856V140.968H79.7646V143ZM84.9331 139.688V137.736H89.1251V139.688H84.9331ZM100.374 143H97.9576V136.392C97.9576 136.125 97.963 135.768 97.9736 135.32C97.9843 134.861 98.0003 134.461 98.0216 134.12C97.9683 134.184 97.851 134.301 97.6696 134.472C97.499 134.632 97.339 134.776 97.1896 134.904L95.8776 135.96L94.7096 134.504L98.3896 131.576H100.374V143ZM103.482 138.152C103.482 137.501 103.53 136.856 103.626 136.216C103.722 135.565 103.887 134.957 104.122 134.392C104.367 133.816 104.703 133.309 105.13 132.872C105.567 132.424 106.117 132.077 106.778 131.832C107.45 131.576 108.261 131.448 109.21 131.448C109.434 131.448 109.695 131.459 109.994 131.48C110.293 131.491 110.543 131.517 110.746 131.56V133.496C110.543 133.453 110.319 133.416 110.074 133.384C109.839 133.352 109.605 133.336 109.37 133.336C108.421 133.336 107.685 133.485 107.162 133.784C106.65 134.083 106.287 134.504 106.074 135.048C105.861 135.581 105.738 136.2 105.706 136.904H105.802C106.015 136.531 106.319 136.216 106.714 135.96C107.119 135.704 107.642 135.576 108.282 135.576C109.285 135.576 110.079 135.891 110.666 136.52C111.253 137.149 111.546 138.04 111.546 139.192C111.546 140.429 111.194 141.4 110.49 142.104C109.797 142.808 108.853 143.16 107.658 143.16C106.879 143.16 106.175 142.984 105.546 142.632C104.917 142.269 104.415 141.72 104.042 140.984C103.669 140.237 103.482 139.293 103.482 138.152ZM107.61 141.224C108.079 141.224 108.463 141.064 108.762 140.744C109.061 140.413 109.21 139.907 109.21 139.224C109.21 138.669 109.082 138.232 108.826 137.912C108.57 137.592 108.181 137.432 107.658 137.432C107.295 137.432 106.981 137.512 106.714 137.672C106.458 137.832 106.255 138.035 106.106 138.28C105.957 138.515 105.882 138.76 105.882 139.016C105.882 139.368 105.946 139.715 106.074 140.056C106.202 140.397 106.394 140.68 106.65 140.904C106.917 141.117 107.237 141.224 107.61 141.224ZM113.326 134.264H115.262L115.598 135.4H115.71C115.945 135.048 116.254 134.744 116.638 134.488C117.033 134.232 117.55 134.104 118.19 134.104C118.681 134.104 119.129 134.2 119.534 134.392C119.939 134.584 120.286 134.872 120.574 135.256C120.862 135.629 121.086 136.099 121.246 136.664C121.406 137.229 121.486 137.88 121.486 138.616C121.486 139.363 121.401 140.019 121.23 140.584C121.07 141.149 120.841 141.624 120.542 142.008C120.243 142.392 119.886 142.68 119.47 142.872C119.065 143.064 118.617 143.16 118.126 143.16C117.497 143.16 116.995 143.048 116.622 142.824C116.249 142.589 115.945 142.328 115.71 142.04H115.582C115.625 142.264 115.657 142.483 115.678 142.696C115.699 142.909 115.71 143.117 115.71 143.32V146.84H113.326V134.264ZM115.71 138.344V138.6C115.71 139.443 115.833 140.093 116.078 140.552C116.334 141 116.793 141.224 117.454 141.224C117.998 141.224 118.398 141 118.654 140.552C118.921 140.104 119.054 139.448 119.054 138.584C119.054 136.867 118.51 136.008 117.422 136.008C116.803 136.008 116.366 136.205 116.11 136.6C115.854 136.984 115.721 137.565 115.71 138.344ZM125.243 138.536L122.427 134.264H125.131L126.827 137.048L128.539 134.264H131.243L128.395 138.536L131.371 143H128.667L126.827 140.008L124.987 143H122.283L125.243 138.536ZM140.601 131.576C141.359 131.576 142.025 131.629 142.601 131.736C143.177 131.832 143.657 131.992 144.041 132.216C144.436 132.44 144.729 132.739 144.921 133.112C145.124 133.475 145.225 133.928 145.225 134.472C145.225 135.123 145.076 135.672 144.777 136.12C144.479 136.568 144.041 136.84 143.465 136.936V137.016C143.753 137.08 144.02 137.171 144.265 137.288C144.511 137.405 144.724 137.565 144.905 137.768C145.097 137.971 145.247 138.232 145.353 138.552C145.46 138.861 145.513 139.24 145.513 139.688C145.513 140.2 145.412 140.664 145.209 141.08C145.017 141.485 144.74 141.832 144.377 142.12C144.015 142.408 143.572 142.627 143.049 142.776C142.537 142.925 141.961 143 141.321 143H137.049V131.576H140.601ZM140.873 136.104C141.577 136.104 142.063 135.997 142.329 135.784C142.607 135.571 142.745 135.24 142.745 134.792C142.745 134.344 142.585 134.029 142.265 133.848C141.956 133.656 141.449 133.56 140.745 133.56H139.465V136.104H140.873ZM139.465 138.024V141H141.049C141.775 141 142.281 140.861 142.569 140.584C142.857 140.296 143.001 139.917 143.001 139.448C143.001 139.021 142.852 138.68 142.553 138.424C142.265 138.157 141.737 138.024 140.969 138.024H139.465ZM155.543 138.616C155.543 140.067 155.159 141.187 154.391 141.976C153.634 142.765 152.599 143.16 151.287 143.16C150.477 143.16 149.751 142.984 149.111 142.632C148.482 142.28 147.986 141.768 147.623 141.096C147.261 140.413 147.079 139.587 147.079 138.616C147.079 137.165 147.458 136.051 148.215 135.272C148.973 134.493 150.013 134.104 151.335 134.104C152.157 134.104 152.882 134.28 153.511 134.632C154.141 134.984 154.637 135.496 154.999 136.168C155.362 136.84 155.543 137.656 155.543 138.616ZM149.511 138.616C149.511 139.48 149.65 140.136 149.927 140.584C150.215 141.021 150.679 141.24 151.319 141.24C151.949 141.24 152.402 141.021 152.679 140.584C152.967 140.136 153.111 139.48 153.111 138.616C153.111 137.752 152.967 137.107 152.679 136.68C152.402 136.243 151.943 136.024 151.303 136.024C150.674 136.024 150.215 136.243 149.927 136.68C149.65 137.107 149.511 137.752 149.511 138.616ZM159.898 143H157.514V130.84H159.898V143ZM165.157 143.16C164.186 143.16 163.391 142.781 162.773 142.024C162.165 141.256 161.861 140.131 161.861 138.648C161.861 137.155 162.17 136.024 162.789 135.256C163.407 134.488 164.218 134.104 165.221 134.104C165.85 134.104 166.367 134.227 166.773 134.472C167.178 134.717 167.498 135.021 167.733 135.384H167.813C167.781 135.213 167.743 134.968 167.701 134.648C167.658 134.317 167.637 133.981 167.637 133.64V130.84H170.021V143H168.197L167.733 141.864H167.637C167.402 142.227 167.087 142.536 166.693 142.792C166.298 143.037 165.786 143.16 165.157 143.16ZM165.989 141.256C166.639 141.256 167.098 141.064 167.365 140.68C167.631 140.285 167.775 139.699 167.797 138.92V138.664C167.797 137.821 167.663 137.176 167.397 136.728C167.141 136.269 166.661 136.04 165.957 136.04C165.434 136.04 165.023 136.269 164.725 136.728C164.426 137.176 164.277 137.827 164.277 138.68C164.277 139.533 164.426 140.179 164.725 140.616C165.023 141.043 165.445 141.256 165.989 141.256Z" fill="#2D2D2D"/>
<path d="M1.26 180V170.004H3.374V173.924H7.336V170.004H9.45V180H7.336V175.688H3.374V180H1.26ZM14.9471 172.216C16.0017 172.216 16.8371 172.519 17.4531 173.126C18.0691 173.723 18.3771 174.577 18.3771 175.688V176.696H13.4491C13.4677 177.284 13.6404 177.746 13.9671 178.082C14.3031 178.418 14.7651 178.586 15.3531 178.586C15.8384 178.586 16.2817 178.539 16.6831 178.446C17.0937 178.343 17.5137 178.189 17.9431 177.984V179.594C17.5604 179.781 17.1637 179.916 16.7531 180C16.3424 180.093 15.8431 180.14 15.2551 180.14C14.4897 180.14 13.8131 180 13.2251 179.72C12.6371 179.431 12.1751 179.001 11.8391 178.432C11.5031 177.853 11.3351 177.121 11.3351 176.234C11.3351 175.347 11.4844 174.605 11.7831 174.008C12.0911 173.411 12.5157 172.963 13.0571 172.664C13.5984 172.365 14.2284 172.216 14.9471 172.216ZM14.9611 173.7C14.5504 173.7 14.2144 173.831 13.9531 174.092C13.6917 174.353 13.5377 174.759 13.4911 175.31H16.4171C16.4077 174.853 16.2817 174.47 16.0391 174.162C15.8057 173.854 15.4464 173.7 14.9611 173.7ZM22.9806 175.282L24.3106 175.24V174.904C24.3106 174.503 24.2032 174.209 23.9886 174.022C23.7832 173.835 23.4939 173.742 23.1206 173.742C22.7472 173.742 22.3832 173.798 22.0286 173.91C21.6739 174.013 21.3192 174.143 20.9646 174.302L20.2786 172.888C20.6799 172.683 21.1326 172.519 21.6366 172.398C22.1406 172.267 22.6632 172.202 23.2046 172.202C24.2406 172.202 25.0292 172.421 25.5706 172.86C26.1119 173.299 26.3826 173.98 26.3826 174.904V180H24.9266L24.5206 178.964H24.4646C24.2966 179.169 24.1286 179.347 23.9606 179.496C23.8019 179.645 23.6246 179.767 23.4286 179.86C23.2326 179.953 23.0132 180.023 22.7706 180.07C22.5279 180.117 22.2479 180.14 21.9306 180.14C21.5946 180.14 21.2819 180.093 20.9926 180C20.7032 179.897 20.4512 179.748 20.2366 179.552C20.0312 179.356 19.8679 179.109 19.7466 178.81C19.6252 178.502 19.5646 178.138 19.5646 177.718C19.5646 176.906 19.8492 176.309 20.4186 175.926C20.9879 175.543 21.8419 175.329 22.9806 175.282ZM21.7066 177.732C21.7066 178.049 21.7999 178.278 21.9866 178.418C22.1732 178.549 22.4159 178.614 22.7146 178.614C23.1626 178.614 23.5406 178.483 23.8486 178.222C24.1566 177.951 24.3106 177.573 24.3106 177.088V176.458L23.4986 176.486C22.8266 176.505 22.3599 176.626 22.0986 176.85C21.8372 177.074 21.7066 177.368 21.7066 177.732ZM30.9398 180.14C30.0904 180.14 29.3951 179.809 28.8538 179.146C28.3218 178.474 28.0558 177.489 28.0558 176.192C28.0558 174.885 28.3264 173.896 28.8678 173.224C29.4091 172.552 30.1184 172.216 30.9958 172.216C31.5464 172.216 31.9991 172.323 32.3538 172.538C32.7084 172.753 32.9884 173.019 33.1938 173.336H33.2638C33.2358 173.187 33.2031 172.972 33.1658 172.692C33.1284 172.403 33.1098 172.109 33.1098 171.81V169.36H35.1958V180H33.5998L33.1938 179.006H33.1098C32.9044 179.323 32.6291 179.594 32.2838 179.818C31.9384 180.033 31.4904 180.14 30.9398 180.14ZM31.6678 178.474C32.2371 178.474 32.6384 178.306 32.8718 177.97C33.1051 177.625 33.2311 177.111 33.2498 176.43V176.206C33.2498 175.469 33.1331 174.904 32.8998 174.512C32.6758 174.111 32.2558 173.91 31.6398 173.91C31.1824 173.91 30.8231 174.111 30.5618 174.512C30.3004 174.904 30.1698 175.473 30.1698 176.22C30.1698 176.967 30.3004 177.531 30.5618 177.914C30.8231 178.287 31.1918 178.474 31.6678 178.474ZM38.4272 169.36C38.7352 169.36 39.0012 169.435 39.2252 169.584C39.4492 169.724 39.5612 169.99 39.5612 170.382C39.5612 170.765 39.4492 171.031 39.2252 171.18C39.0012 171.329 38.7352 171.404 38.4272 171.404C38.1098 171.404 37.8392 171.329 37.6152 171.18C37.4005 171.031 37.2932 170.765 37.2932 170.382C37.2932 169.99 37.4005 169.724 37.6152 169.584C37.8392 169.435 38.1098 169.36 38.4272 169.36ZM39.4632 172.356V180H37.3772V172.356H39.4632ZM41.6428 172.356H43.2388L43.5188 173.336H43.6308C43.8734 172.944 44.2048 172.659 44.6248 172.482C45.0541 172.305 45.5068 172.216 45.9828 172.216C46.8041 172.216 47.4621 172.44 47.9568 172.888C48.4514 173.327 48.6988 174.036 48.6988 175.016V180H46.6128V175.534C46.6128 174.974 46.5148 174.559 46.3188 174.288C46.1228 174.017 45.8101 173.882 45.3808 173.882C44.7461 173.882 44.3121 174.101 44.0788 174.54C43.8454 174.969 43.7288 175.59 43.7288 176.402V180H41.6428V172.356ZM53.322 172.216C54.2646 172.216 55.002 172.589 55.534 173.336H55.59L55.758 172.356H57.522V180.014C57.522 181.106 57.2 181.937 56.556 182.506C55.912 183.075 54.96 183.36 53.7 183.36C53.1586 183.36 52.6546 183.327 52.188 183.262C51.7306 183.197 51.2826 183.08 50.844 182.912V181.246C51.7773 181.638 52.7713 181.834 53.826 181.834C54.8993 181.834 55.436 181.255 55.436 180.098V179.944C55.436 179.795 55.4406 179.636 55.45 179.468C55.4593 179.291 55.4733 179.137 55.492 179.006H55.436C55.1746 179.407 54.862 179.697 54.498 179.874C54.134 180.051 53.7233 180.14 53.266 180.14C52.3606 180.14 51.6513 179.795 51.138 179.104C50.634 178.404 50.382 177.433 50.382 176.192C50.382 174.941 50.6433 173.966 51.166 173.266C51.6886 172.566 52.4073 172.216 53.322 172.216ZM53.98 173.91C53 173.91 52.51 174.68 52.51 176.22C52.51 177.741 53.0093 178.502 54.008 178.502C54.54 178.502 54.932 178.353 55.184 178.054C55.4453 177.746 55.576 177.214 55.576 176.458V176.206C55.576 175.385 55.45 174.797 55.198 174.442C54.946 174.087 54.54 173.91 53.98 173.91ZM69.402 172.244C69.402 172.935 69.192 173.485 68.772 173.896C68.3614 174.307 67.8527 174.587 67.246 174.736V174.778C68.0394 174.881 68.646 175.128 69.066 175.52C69.486 175.912 69.696 176.435 69.696 177.088C69.696 177.667 69.5514 178.189 69.262 178.656C68.982 179.113 68.5434 179.477 67.946 179.748C67.358 180.009 66.5974 180.14 65.664 180.14C64.5814 180.14 63.62 179.958 62.78 179.594V177.802C63.2094 178.017 63.6574 178.18 64.124 178.292C64.5907 178.404 65.0294 178.46 65.44 178.46C66.196 178.46 66.7234 178.329 67.022 178.068C67.33 177.807 67.484 177.438 67.484 176.962C67.484 176.691 67.414 176.458 67.274 176.262C67.134 176.066 66.8867 175.921 66.532 175.828C66.1867 175.725 65.7014 175.674 65.076 175.674H64.32V174.05H65.09C65.706 174.05 66.1727 173.994 66.49 173.882C66.8167 173.761 67.036 173.602 67.148 173.406C67.2694 173.201 67.33 172.967 67.33 172.706C67.33 172.351 67.218 172.076 66.994 171.88C66.7794 171.675 66.4154 171.572 65.902 171.572C65.426 171.572 65.0107 171.656 64.656 171.824C64.3014 171.992 64.0074 172.151 63.774 172.3L62.794 170.844C63.186 170.564 63.6434 170.331 64.166 170.144C64.698 169.957 65.328 169.864 66.056 169.864C67.0827 169.864 67.8947 170.074 68.492 170.494C69.0987 170.905 69.402 171.488 69.402 172.244ZM74.3165 177.102V175.394H77.9845V177.102H74.3165ZM87.8269 180H85.7129V174.218C85.7129 173.985 85.7176 173.672 85.7269 173.28C85.7363 172.879 85.7503 172.529 85.7689 172.23C85.7223 172.286 85.6196 172.389 85.4609 172.538C85.3116 172.678 85.1716 172.804 85.0409 172.916L83.8929 173.84L82.8709 172.566L86.0909 170.004H87.8269V180ZM90.2946 177.928V176.458L94.6766 170.004H96.6226V176.29H97.8266V177.928H96.6226V180H94.5646V177.928H90.2946ZM92.1566 176.29H94.5646V174.596C94.5646 174.437 94.5646 174.246 94.5646 174.022C94.574 173.798 94.5833 173.579 94.5926 173.364C94.602 173.149 94.6113 172.953 94.6206 172.776C94.63 172.599 94.6393 172.482 94.6486 172.426H94.5926C94.5086 172.613 94.4153 172.795 94.3126 172.972C94.2193 173.149 94.112 173.331 93.9906 173.518L92.1566 176.29ZM99.1604 172.356H100.854L101.148 173.35H101.246C101.452 173.042 101.722 172.776 102.058 172.552C102.404 172.328 102.856 172.216 103.416 172.216C103.846 172.216 104.238 172.3 104.592 172.468C104.947 172.636 105.25 172.888 105.502 173.224C105.754 173.551 105.95 173.961 106.09 174.456C106.23 174.951 106.3 175.52 106.3 176.164C106.3 176.817 106.226 177.391 106.076 177.886C105.936 178.381 105.736 178.796 105.474 179.132C105.213 179.468 104.9 179.72 104.536 179.888C104.182 180.056 103.79 180.14 103.36 180.14C102.81 180.14 102.371 180.042 102.044 179.846C101.718 179.641 101.452 179.412 101.246 179.16H101.134C101.172 179.356 101.2 179.547 101.218 179.734C101.237 179.921 101.246 180.103 101.246 180.28V183.36H99.1604V172.356ZM101.246 175.926V176.15C101.246 176.887 101.354 177.457 101.568 177.858C101.792 178.25 102.194 178.446 102.772 178.446C103.248 178.446 103.598 178.25 103.822 177.858C104.056 177.466 104.172 176.892 104.172 176.136C104.172 174.633 103.696 173.882 102.744 173.882C102.203 173.882 101.82 174.055 101.596 174.4C101.372 174.736 101.256 175.245 101.246 175.926ZM109.588 176.094L107.124 172.356H109.49L110.974 174.792L112.472 172.356H114.838L112.346 176.094L114.95 180H112.584L110.974 177.382L109.364 180H106.998L109.588 176.094ZM123.026 170.004C123.689 170.004 124.272 170.051 124.776 170.144C125.28 170.228 125.7 170.368 126.036 170.564C126.382 170.76 126.638 171.021 126.806 171.348C126.984 171.665 127.072 172.062 127.072 172.538C127.072 173.107 126.942 173.588 126.68 173.98C126.419 174.372 126.036 174.61 125.532 174.694V174.764C125.784 174.82 126.018 174.899 126.232 175.002C126.447 175.105 126.634 175.245 126.792 175.422C126.96 175.599 127.091 175.828 127.184 176.108C127.278 176.379 127.324 176.71 127.324 177.102C127.324 177.55 127.236 177.956 127.058 178.32C126.89 178.675 126.648 178.978 126.33 179.23C126.013 179.482 125.626 179.673 125.168 179.804C124.72 179.935 124.216 180 123.656 180H119.918V170.004H123.026ZM123.264 173.966C123.88 173.966 124.305 173.873 124.538 173.686C124.781 173.499 124.902 173.21 124.902 172.818C124.902 172.426 124.762 172.151 124.482 171.992C124.212 171.824 123.768 171.74 123.152 171.74H122.032V173.966H123.264ZM122.032 175.646V178.25H123.418C124.053 178.25 124.496 178.129 124.748 177.886C125 177.634 125.126 177.303 125.126 176.892C125.126 176.519 124.996 176.22 124.734 175.996C124.482 175.763 124.02 175.646 123.348 175.646H122.032ZM136.1 176.164C136.1 177.433 135.764 178.413 135.092 179.104C134.43 179.795 133.524 180.14 132.376 180.14C131.667 180.14 131.032 179.986 130.472 179.678C129.922 179.37 129.488 178.922 129.17 178.334C128.853 177.737 128.694 177.013 128.694 176.164C128.694 174.895 129.026 173.919 129.688 173.238C130.351 172.557 131.261 172.216 132.418 172.216C133.137 172.216 133.772 172.37 134.322 172.678C134.873 172.986 135.307 173.434 135.624 174.022C135.942 174.61 136.1 175.324 136.1 176.164ZM130.822 176.164C130.822 176.92 130.944 177.494 131.186 177.886C131.438 178.269 131.844 178.46 132.404 178.46C132.955 178.46 133.352 178.269 133.594 177.886C133.846 177.494 133.972 176.92 133.972 176.164C133.972 175.408 133.846 174.843 133.594 174.47C133.352 174.087 132.95 173.896 132.39 173.896C131.84 173.896 131.438 174.087 131.186 174.47C130.944 174.843 130.822 175.408 130.822 176.164ZM139.91 180H137.824V169.36H139.91V180ZM144.512 180.14C143.663 180.14 142.967 179.809 142.426 179.146C141.894 178.474 141.628 177.489 141.628 176.192C141.628 174.885 141.899 173.896 142.44 173.224C142.981 172.552 143.691 172.216 144.568 172.216C145.119 172.216 145.571 172.323 145.926 172.538C146.281 172.753 146.561 173.019 146.766 173.336H146.836C146.808 173.187 146.775 172.972 146.738 172.692C146.701 172.403 146.682 172.109 146.682 171.81V169.36H148.768V180H147.172L146.766 179.006H146.682C146.477 179.323 146.201 179.594 145.856 179.818C145.511 180.033 145.063 180.14 144.512 180.14ZM145.24 178.474C145.809 178.474 146.211 178.306 146.444 177.97C146.677 177.625 146.803 177.111 146.822 176.43V176.206C146.822 175.469 146.705 174.904 146.472 174.512C146.248 174.111 145.828 173.91 145.212 173.91C144.755 173.91 144.395 174.111 144.134 174.512C143.873 174.904 143.742 175.473 143.742 176.22C143.742 176.967 143.873 177.531 144.134 177.914C144.395 178.287 144.764 178.474 145.24 178.474Z" fill="#2D2D2D"/>
<path d="M1.358 206.004H4.214C5.46467 206.004 6.40733 206.191 7.042 206.564C7.686 206.937 8.008 207.577 8.008 208.482C8.008 209.07 7.84467 209.56 7.518 209.952C7.19133 210.335 6.72 210.582 6.104 210.694V210.764C6.42133 210.82 6.71533 210.904 6.986 211.016C7.25667 211.128 7.49 211.277 7.686 211.464C7.89133 211.651 8.05 211.884 8.162 212.164C8.28333 212.435 8.344 212.766 8.344 213.158C8.344 214.063 8.03133 214.763 7.406 215.258C6.79 215.753 5.94533 216 4.872 216H1.358V206.004ZM2.618 214.936H4.634C5.082 214.936 5.45533 214.894 5.754 214.81C6.05267 214.717 6.29533 214.586 6.482 214.418C6.66867 214.25 6.79933 214.054 6.874 213.83C6.958 213.597 7 213.34 7 213.06C7 212.799 6.958 212.561 6.874 212.346C6.79 212.131 6.65 211.949 6.454 211.8C6.26733 211.641 6.01533 211.52 5.698 211.436C5.39 211.352 5.00267 211.31 4.536 211.31H2.618V214.936ZM2.618 207.082V210.26H4.466C4.886 210.26 5.24067 210.227 5.53 210.162C5.81933 210.087 6.048 209.985 6.216 209.854C6.39333 209.714 6.51933 209.541 6.594 209.336C6.66867 209.131 6.706 208.893 6.706 208.622C6.706 208.062 6.51 207.665 6.118 207.432C5.73533 207.199 5.11933 207.082 4.27 207.082H2.618ZM16.8195 212.234C16.8195 212.794 16.7495 213.312 16.6095 213.788C16.4695 214.264 16.2548 214.679 15.9655 215.034C15.6761 215.379 15.3121 215.65 14.8735 215.846C14.4348 216.042 13.9168 216.14 13.3195 216.14C12.8248 216.14 12.3675 216.056 11.9475 215.888C11.5275 215.711 11.1635 215.459 10.8555 215.132C10.5475 214.796 10.3048 214.385 10.1275 213.9C9.95947 213.415 9.87547 212.859 9.87547 212.234C9.87547 210.983 10.1835 210.027 10.7995 209.364C11.4155 208.692 12.2695 208.356 13.3615 208.356C13.8655 208.356 14.3275 208.445 14.7475 208.622C15.1768 208.79 15.5408 209.037 15.8395 209.364C16.1475 209.691 16.3855 210.097 16.5535 210.582C16.7308 211.067 16.8195 211.618 16.8195 212.234ZM11.1495 212.234C11.1495 213.13 11.3221 213.835 11.6675 214.348C12.0221 214.861 12.5821 215.118 13.3475 215.118C14.1035 215.118 14.6588 214.861 15.0135 214.348C15.3681 213.835 15.5455 213.13 15.5455 212.234C15.5455 211.338 15.3681 210.643 15.0135 210.148C14.6588 209.644 14.0988 209.392 13.3335 209.392C12.5681 209.392 12.0128 209.644 11.6675 210.148C11.3221 210.643 11.1495 211.338 11.1495 212.234ZM21.432 216.14C20.4987 216.14 19.752 215.818 19.192 215.174C18.632 214.521 18.352 213.55 18.352 212.262C18.352 211.618 18.4267 211.053 18.576 210.568C18.7254 210.083 18.9354 209.677 19.206 209.35C19.4767 209.014 19.7987 208.767 20.172 208.608C20.5547 208.44 20.9794 208.356 21.446 208.356C22.034 208.356 22.51 208.463 22.874 208.678C23.238 208.893 23.5367 209.154 23.77 209.462H23.854C23.8447 209.406 23.8354 209.331 23.826 209.238C23.8167 209.135 23.8074 209.028 23.798 208.916C23.7887 208.804 23.7794 208.697 23.77 208.594C23.77 208.491 23.77 208.412 23.77 208.356V205.36H25.002V216H24.008L23.826 214.992H23.77C23.546 215.309 23.2474 215.58 22.874 215.804C22.5007 216.028 22.02 216.14 21.432 216.14ZM21.628 215.118C22.4214 215.118 22.9767 214.903 23.294 214.474C23.6207 214.035 23.784 213.377 23.784 212.5V212.276C23.784 211.884 23.756 211.511 23.7 211.156C23.6534 210.801 23.5507 210.493 23.392 210.232C23.2334 209.971 23.014 209.765 22.734 209.616C22.454 209.457 22.0807 209.378 21.614 209.378C20.942 209.378 20.4427 209.639 20.116 210.162C19.7894 210.685 19.626 211.394 19.626 212.29C19.626 213.195 19.7894 213.895 20.116 214.39C20.452 214.875 20.956 215.118 21.628 215.118ZM26.2093 208.496H27.5253L29.1493 212.766C29.2893 213.158 29.4153 213.522 29.5273 213.858C29.6393 214.185 29.7233 214.502 29.7793 214.81H29.8353C29.8913 214.577 29.98 214.273 30.1013 213.9C30.2226 213.527 30.3486 213.144 30.4793 212.752L32.0053 208.496H33.3353L30.1013 217.036C29.9613 217.391 29.8073 217.708 29.6393 217.988C29.4806 218.277 29.294 218.525 29.0793 218.73C28.8646 218.935 28.6173 219.089 28.3373 219.192C28.0573 219.304 27.7353 219.36 27.3713 219.36C27.1473 219.36 26.9513 219.346 26.7833 219.318C26.6153 219.299 26.4706 219.276 26.3493 219.248V218.268C26.452 218.287 26.5733 218.305 26.7133 218.324C26.8626 218.343 27.0166 218.352 27.1753 218.352C27.6046 218.352 27.95 218.231 28.2113 217.988C28.4726 217.745 28.6826 217.423 28.8413 217.022L29.2333 216.028L26.2093 208.496ZM37.1928 209.448V208.86L38.2708 208.37L38.7608 206.774H39.4888V208.496H41.6588V209.448H39.4888V213.788C39.4888 214.245 39.5961 214.586 39.8108 214.81C40.0348 215.025 40.3194 215.132 40.6647 215.132C40.8514 215.132 41.0428 215.118 41.2388 215.09C41.4348 215.062 41.5934 215.025 41.7148 214.978V215.916C41.5841 215.981 41.3974 216.033 41.1548 216.07C40.9121 216.117 40.6788 216.14 40.4548 216.14C40.1654 216.14 39.8854 216.103 39.6148 216.028C39.3534 215.963 39.1201 215.841 38.9148 215.664C38.7188 215.487 38.5601 215.249 38.4388 214.95C38.3174 214.651 38.2568 214.273 38.2568 213.816V209.448H37.1928ZM46.1153 208.356C46.5913 208.356 47.0207 208.44 47.4033 208.608C47.786 208.767 48.108 208.995 48.3693 209.294C48.64 209.583 48.8453 209.938 48.9853 210.358C49.1347 210.769 49.2093 211.231 49.2093 211.744V212.486H44.0713C44.09 213.335 44.3047 213.984 44.7153 214.432C45.126 214.871 45.7093 215.09 46.4653 215.09C46.9413 215.09 47.3613 215.048 47.7253 214.964C48.0987 214.871 48.4813 214.74 48.8733 214.572V215.65C48.4907 215.818 48.1127 215.939 47.7393 216.014C47.366 216.098 46.9227 216.14 46.4093 216.14C45.868 216.14 45.3733 216.061 44.9253 215.902C44.4867 215.734 44.1087 215.491 43.7913 215.174C43.474 214.847 43.2267 214.446 43.0493 213.97C42.8813 213.485 42.7973 212.929 42.7973 212.304C42.7973 211.688 42.8767 211.137 43.0353 210.652C43.194 210.167 43.418 209.756 43.7073 209.42C43.9967 209.075 44.3467 208.813 44.7573 208.636C45.168 208.449 45.6207 208.356 46.1153 208.356ZM46.1013 209.364C45.5133 209.364 45.0467 209.555 44.7013 209.938C44.3653 210.311 44.1647 210.834 44.0993 211.506H47.9213C47.912 210.862 47.7627 210.344 47.4733 209.952C47.184 209.56 46.7267 209.364 46.1013 209.364ZM52.8977 212.164L50.3077 208.496H51.7077L53.6397 211.324L55.5577 208.496H56.9437L54.3537 212.164L57.0837 216H55.6837L53.6397 213.004L51.5677 216H50.1817L52.8977 212.164ZM57.5638 209.448V208.86L58.6418 208.37L59.1318 206.774H59.8598V208.496H62.0298V209.448H59.8598V213.788C59.8598 214.245 59.9672 214.586 60.1818 214.81C60.4058 215.025 60.6905 215.132 61.0358 215.132C61.2225 215.132 61.4138 215.118 61.6098 215.09C61.8058 215.062 61.9645 215.025 62.0858 214.978V215.916C61.9552 215.981 61.7685 216.033 61.5258 216.07C61.2832 216.117 61.0498 216.14 60.8258 216.14C60.5365 216.14 60.2565 216.103 59.9858 216.028C59.7245 215.963 59.4912 215.841 59.2858 215.664C59.0898 215.487 58.9312 215.249 58.8098 214.95C58.6885 214.651 58.6278 214.273 58.6278 213.816V209.448H57.5638ZM66.5952 212.794V211.702H69.9832V212.794H66.5952ZM79.1536 216H77.9496V209.014C77.9496 208.613 77.9543 208.291 77.9636 208.048C77.9729 207.805 77.9869 207.553 78.0056 207.292C77.8563 207.441 77.7163 207.567 77.5856 207.67C77.4643 207.773 77.3149 207.903 77.1376 208.062L76.0736 208.93L75.4296 208.104L78.1316 206.004H79.1536V216ZM87.1933 205.948H88.4673V212.626H89.9233V213.732H88.4673V216H87.2773V213.732H82.4893V212.682L87.1933 205.948ZM87.2773 212.626V209.476C87.2773 208.991 87.282 208.58 87.2913 208.244C87.31 207.899 87.3286 207.572 87.3473 207.264H87.2913C87.2166 207.441 87.1233 207.633 87.0113 207.838C86.8993 208.043 86.792 208.216 86.6893 208.356L83.6933 212.626H87.2773ZM91.397 208.496H92.405L92.573 209.518H92.629C92.853 209.191 93.147 208.916 93.511 208.692C93.875 208.468 94.3604 208.356 94.967 208.356C95.891 208.356 96.633 208.678 97.193 209.322C97.7624 209.966 98.047 210.937 98.047 212.234C98.047 212.878 97.9724 213.443 97.823 213.928C97.6737 214.413 97.4637 214.819 97.193 215.146C96.9224 215.473 96.5957 215.72 96.213 215.888C95.8397 216.056 95.4197 216.14 94.953 216.14C94.365 216.14 93.8844 216.033 93.511 215.818C93.1377 215.603 92.8437 215.347 92.629 215.048H92.545C92.5544 215.207 92.5684 215.407 92.587 215.65C92.615 215.893 92.629 216.103 92.629 216.28V219.36H91.397V208.496ZM92.629 212.234C92.629 212.691 92.6617 213.102 92.727 213.466C92.8017 213.821 92.9184 214.124 93.077 214.376C93.245 214.619 93.4644 214.805 93.735 214.936C94.015 215.057 94.3604 215.118 94.771 215.118C95.107 215.118 95.401 215.048 95.653 214.908C95.905 214.759 96.115 214.558 96.283 214.306C96.451 214.045 96.5724 213.737 96.647 213.382C96.731 213.027 96.773 212.64 96.773 212.22C96.773 211.361 96.605 210.675 96.269 210.162C95.9424 209.649 95.4337 209.392 94.743 209.392C93.9777 209.392 93.4364 209.607 93.119 210.036C92.8017 210.465 92.6384 211.119 92.629 211.996V212.234ZM101.788 212.164L99.1983 208.496H100.598L102.53 211.324L104.448 208.496H105.834L103.244 212.164L105.974 216H104.574L102.53 213.004L100.458 216H99.0723L101.788 212.164ZM111.225 216V206.004H113.983C115.234 206.004 116.153 206.237 116.741 206.704C117.329 207.171 117.623 207.885 117.623 208.846C117.623 209.247 117.563 209.597 117.441 209.896C117.329 210.185 117.18 210.437 116.993 210.652C116.807 210.867 116.592 211.044 116.349 211.184C116.116 211.324 115.873 211.436 115.621 211.52L118.365 216H116.895L114.473 211.87H112.485V216H111.225ZM112.485 210.806H113.983C114.805 210.806 115.397 210.647 115.761 210.33C116.135 210.003 116.321 209.527 116.321 208.902C116.321 208.249 116.125 207.787 115.733 207.516C115.341 207.236 114.735 207.096 113.913 207.096H112.485V210.806ZM122.664 208.356C123.14 208.356 123.57 208.44 123.952 208.608C124.335 208.767 124.657 208.995 124.918 209.294C125.189 209.583 125.394 209.938 125.534 210.358C125.684 210.769 125.758 211.231 125.758 211.744V212.486H120.62C120.639 213.335 120.854 213.984 121.264 214.432C121.675 214.871 122.258 215.09 123.014 215.09C123.49 215.09 123.91 215.048 124.274 214.964C124.648 214.871 125.03 214.74 125.422 214.572V215.65C125.04 215.818 124.662 215.939 124.288 216.014C123.915 216.098 123.472 216.14 122.958 216.14C122.417 216.14 121.922 216.061 121.474 215.902C121.036 215.734 120.658 215.491 120.34 215.174C120.023 214.847 119.776 214.446 119.598 213.97C119.43 213.485 119.346 212.929 119.346 212.304C119.346 211.688 119.426 211.137 119.584 210.652C119.743 210.167 119.967 209.756 120.256 209.42C120.546 209.075 120.896 208.813 121.306 208.636C121.717 208.449 122.17 208.356 122.664 208.356ZM122.65 209.364C122.062 209.364 121.596 209.555 121.25 209.938C120.914 210.311 120.714 210.834 120.648 211.506H124.47C124.461 210.862 124.312 210.344 124.022 209.952C123.733 209.56 123.276 209.364 122.65 209.364ZM130.329 208.356C131.346 208.356 132.13 208.734 132.681 209.49H132.751L132.919 208.496H133.899V216.126C133.899 217.199 133.628 218.007 133.087 218.548C132.545 219.089 131.696 219.36 130.539 219.36C129.428 219.36 128.527 219.201 127.837 218.884V217.75C128.583 218.142 129.507 218.338 130.609 218.338C131.253 218.338 131.757 218.147 132.121 217.764C132.494 217.391 132.681 216.877 132.681 216.224V215.93C132.681 215.883 132.681 215.818 132.681 215.734C132.69 215.641 132.695 215.547 132.695 215.454C132.704 215.351 132.709 215.258 132.709 215.174C132.718 215.09 132.723 215.034 132.723 215.006H132.667C132.163 215.762 131.388 216.14 130.343 216.14C129.363 216.14 128.602 215.804 128.061 215.132C127.519 214.451 127.249 213.494 127.249 212.262C127.249 211.767 127.305 211.287 127.417 210.82C127.529 210.353 127.706 209.938 127.949 209.574C128.201 209.21 128.518 208.916 128.901 208.692C129.293 208.468 129.769 208.356 130.329 208.356ZM130.497 209.392C129.871 209.392 129.386 209.639 129.041 210.134C128.695 210.629 128.523 211.343 128.523 212.276C128.523 213.209 128.686 213.919 129.013 214.404C129.349 214.889 129.853 215.132 130.525 215.132C131.281 215.132 131.831 214.931 132.177 214.53C132.522 214.119 132.695 213.461 132.695 212.556V212.262C132.695 211.245 132.517 210.512 132.163 210.064C131.808 209.616 131.253 209.392 130.497 209.392ZM136.198 208.496H137.444V213.326C137.444 214.521 137.999 215.118 139.11 215.118C139.94 215.118 140.514 214.885 140.832 214.418C141.158 213.951 141.322 213.279 141.322 212.402V208.496H142.554V216H141.546L141.364 215.006H141.308C141.065 215.398 140.729 215.687 140.3 215.874C139.87 216.051 139.413 216.14 138.928 216.14C138.022 216.14 137.341 215.925 136.884 215.496C136.426 215.067 136.198 214.371 136.198 213.41V208.496ZM146.168 216H144.936V205.36H146.168V216ZM151.387 208.37C152.311 208.37 152.988 208.571 153.417 208.972C153.856 209.373 154.075 210.013 154.075 210.89V216H153.179L152.941 214.936H152.885C152.708 215.16 152.531 215.351 152.353 215.51C152.176 215.659 151.985 215.781 151.779 215.874C151.583 215.967 151.369 216.033 151.135 216.07C150.911 216.117 150.655 216.14 150.365 216.14C149.647 216.14 149.073 215.953 148.643 215.58C148.214 215.207 147.999 214.651 147.999 213.914C147.999 213.158 148.289 212.579 148.867 212.178C149.455 211.777 150.365 211.557 151.597 211.52L152.871 211.478V211.03C152.871 210.405 152.736 209.971 152.465 209.728C152.204 209.485 151.821 209.364 151.317 209.364C150.925 209.364 150.552 209.425 150.197 209.546C149.843 209.658 149.511 209.789 149.203 209.938L148.825 209.014C149.152 208.837 149.539 208.687 149.987 208.566C150.435 208.435 150.902 208.37 151.387 208.37ZM152.857 212.332L151.751 212.374C151.49 212.383 151.215 212.407 150.925 212.444C150.636 212.481 150.365 212.556 150.113 212.668C149.871 212.771 149.67 212.925 149.511 213.13C149.353 213.326 149.273 213.592 149.273 213.928C149.273 214.348 149.399 214.656 149.651 214.852C149.913 215.048 150.244 215.146 150.645 215.146C151.317 215.146 151.854 214.964 152.255 214.6C152.657 214.227 152.857 213.695 152.857 213.004V212.332ZM159.893 208.356C160.033 208.356 160.182 208.365 160.341 208.384C160.5 208.393 160.644 208.412 160.775 208.44L160.621 209.574C160.5 209.546 160.364 209.523 160.215 209.504C160.066 209.485 159.93 209.476 159.809 209.476C159.52 209.476 159.24 209.537 158.969 209.658C158.708 209.779 158.474 209.952 158.269 210.176C158.073 210.391 157.914 210.652 157.793 210.96C157.681 211.268 157.625 211.613 157.625 211.996V216H156.393V208.496H157.401L157.541 209.868H157.597C157.83 209.457 158.138 209.103 158.521 208.804C158.913 208.505 159.37 208.356 159.893 208.356Z" fill="#2D2D2D"/>
<path d="M3.372 241.432L7.092 247.852H7.128C7.112 247.46 7.096 247.072 7.08 246.688C7.064 246.296 7.052 245.896 7.044 245.488V241.432H8.676V250H6.372L2.64 243.52H2.592L2.7 245.968V250H1.08V241.432H3.372ZM16.6497 246.712C16.6497 247.8 16.3617 248.64 15.7857 249.232C15.2177 249.824 14.4417 250.12 13.4577 250.12C12.8497 250.12 12.3057 249.988 11.8257 249.724C11.3537 249.46 10.9817 249.076 10.7097 248.572C10.4377 248.06 10.3017 247.44 10.3017 246.712C10.3017 245.624 10.5857 244.788 11.1537 244.204C11.7217 243.62 12.5017 243.328 13.4937 243.328C14.1097 243.328 14.6537 243.46 15.1257 243.724C15.5977 243.988 15.9697 244.372 16.2417 244.876C16.5137 245.38 16.6497 245.992 16.6497 246.712ZM12.1257 246.712C12.1257 247.36 12.2297 247.852 12.4377 248.188C12.6537 248.516 13.0017 248.68 13.4817 248.68C13.9537 248.68 14.2937 248.516 14.5017 248.188C14.7177 247.852 14.8257 247.36 14.8257 246.712C14.8257 246.064 14.7177 245.58 14.5017 245.26C14.2937 244.932 13.9497 244.768 13.4697 244.768C12.9977 244.768 12.6537 244.932 12.4377 245.26C12.2297 245.58 12.1257 246.064 12.1257 246.712ZM18.4514 243.436L18.9674 242.056H20.1074V243.448H21.9434V244.792H20.1074V247.948C20.1074 248.196 20.1794 248.384 20.3234 248.512C20.4674 248.632 20.6554 248.692 20.8874 248.692C21.0874 248.692 21.2794 248.676 21.4634 248.644C21.6474 248.604 21.8314 248.552 22.0154 248.488V249.82C21.8234 249.908 21.5834 249.98 21.2954 250.036C21.0154 250.092 20.7074 250.12 20.3714 250.12C20.0834 250.12 19.8114 250.084 19.5554 250.012C19.3074 249.948 19.0914 249.836 18.9074 249.676C18.7234 249.508 18.5794 249.284 18.4754 249.004C18.3714 248.724 18.3194 248.372 18.3194 247.948V244.792H17.4674V244.036L18.4514 243.436ZM26.0305 243.328C26.9345 243.328 27.6505 243.588 28.1785 244.108C28.7065 244.62 28.9705 245.352 28.9705 246.304V247.168H24.7465C24.7625 247.672 24.9105 248.068 25.1905 248.356C25.4785 248.644 25.8745 248.788 26.3785 248.788C26.7945 248.788 27.1745 248.748 27.5185 248.668C27.8705 248.58 28.2305 248.448 28.5985 248.272V249.652C28.2705 249.812 27.9305 249.928 27.5785 250C27.2265 250.08 26.7985 250.12 26.2945 250.12C25.6385 250.12 25.0585 250 24.5545 249.76C24.0505 249.512 23.6545 249.144 23.3665 248.656C23.0785 248.16 22.9345 247.532 22.9345 246.772C22.9345 246.012 23.0625 245.376 23.3185 244.864C23.5825 244.352 23.9465 243.968 24.4105 243.712C24.8745 243.456 25.4145 243.328 26.0305 243.328ZM26.0425 244.6C25.6905 244.6 25.4025 244.712 25.1785 244.936C24.9545 245.16 24.8225 245.508 24.7825 245.98H27.2905C27.2825 245.588 27.1745 245.26 26.9665 244.996C26.7665 244.732 26.4585 244.6 26.0425 244.6ZM34.9924 248.056C34.9924 248.72 34.7564 249.232 34.2844 249.592C33.8204 249.944 33.1244 250.12 32.1964 250.12C31.7404 250.12 31.3484 250.088 31.0204 250.024C30.6924 249.968 30.3644 249.872 30.0364 249.736V248.26C30.3884 248.42 30.7684 248.552 31.1764 248.656C31.5844 248.76 31.9444 248.812 32.2564 248.812C32.6004 248.812 32.8484 248.76 33.0004 248.656C33.1524 248.552 33.2284 248.416 33.2284 248.248C33.2284 248.136 33.1964 248.036 33.1324 247.948C33.0764 247.86 32.9484 247.76 32.7484 247.648C32.5484 247.536 32.2364 247.392 31.8124 247.216C31.3964 247.04 31.0564 246.868 30.7924 246.7C30.5364 246.524 30.3444 246.316 30.2164 246.076C30.0884 245.828 30.0244 245.52 30.0244 245.152C30.0244 244.544 30.2604 244.088 30.7324 243.784C31.2044 243.48 31.8324 243.328 32.6164 243.328C33.0244 243.328 33.4124 243.368 33.7804 243.448C34.1484 243.528 34.5284 243.66 34.9204 243.844L34.3804 245.128C34.0604 244.992 33.7564 244.88 33.4684 244.792C33.1804 244.696 32.8884 244.648 32.5924 244.648C32.0644 244.648 31.8004 244.792 31.8004 245.08C31.8004 245.184 31.8324 245.28 31.8964 245.368C31.9684 245.448 32.1004 245.536 32.2924 245.632C32.4924 245.728 32.7844 245.856 33.1684 246.016C33.5444 246.168 33.8684 246.328 34.1404 246.496C34.4124 246.656 34.6204 246.86 34.7644 247.108C34.9164 247.356 34.9924 247.672 34.9924 248.056ZM38.9264 247.516V246.052H42.0704V247.516H38.9264ZM50.5068 250H48.6948V245.044C48.6948 244.844 48.6988 244.576 48.7068 244.24C48.7148 243.896 48.7268 243.596 48.7428 243.34C48.7028 243.388 48.6148 243.476 48.4788 243.604C48.3508 243.724 48.2308 243.832 48.1188 243.928L47.1348 244.72L46.2588 243.628L49.0188 241.432H50.5068V250ZM58.886 250H52.898V248.74L55.046 246.568C55.478 246.12 55.826 245.748 56.09 245.452C56.354 245.148 56.546 244.876 56.666 244.636C56.786 244.388 56.846 244.124 56.846 243.844C56.846 243.5 56.75 243.244 56.558 243.076C56.374 242.908 56.122 242.824 55.802 242.824C55.474 242.824 55.154 242.9 54.842 243.052C54.53 243.204 54.202 243.42 53.858 243.7L52.874 242.536C53.114 242.328 53.374 242.132 53.654 241.948C53.934 241.756 54.254 241.604 54.614 241.492C54.982 241.372 55.422 241.312 55.934 241.312C56.494 241.312 56.974 241.416 57.374 241.624C57.782 241.824 58.094 242.1 58.31 242.452C58.534 242.796 58.646 243.188 58.646 243.628C58.646 244.1 58.55 244.532 58.358 244.924C58.174 245.316 57.902 245.704 57.542 246.088C57.19 246.472 56.762 246.896 56.258 247.36L55.154 248.392V248.476H58.886V250ZM60.2212 243.448H61.6732L61.9252 244.3H62.0092C62.1852 244.036 62.4172 243.808 62.7052 243.616C63.0012 243.424 63.3892 243.328 63.8692 243.328C64.2372 243.328 64.5732 243.4 64.8772 243.544C65.1812 243.688 65.4412 243.904 65.6572 244.192C65.8732 244.472 66.0412 244.824 66.1612 245.248C66.2812 245.672 66.3412 246.16 66.3412 246.712C66.3412 247.272 66.2772 247.764 66.1492 248.188C66.0292 248.612 65.8572 248.968 65.6332 249.256C65.4092 249.544 65.1412 249.76 64.8292 249.904C64.5252 250.048 64.1892 250.12 63.8212 250.12C63.3492 250.12 62.9732 250.036 62.6932 249.868C62.4132 249.692 62.1852 249.496 62.0092 249.28H61.9132C61.9452 249.448 61.9692 249.612 61.9852 249.772C62.0012 249.932 62.0092 250.088 62.0092 250.24V252.88H60.2212V243.448ZM62.0092 246.508V246.7C62.0092 247.332 62.1012 247.82 62.2852 248.164C62.4772 248.5 62.8212 248.668 63.3172 248.668C63.7252 248.668 64.0252 248.5 64.2172 248.164C64.4172 247.828 64.5172 247.336 64.5172 246.688C64.5172 245.4 64.1092 244.756 63.2932 244.756C62.8292 244.756 62.5012 244.904 62.3092 245.2C62.1172 245.488 62.0172 245.924 62.0092 246.508ZM69.1589 246.652L67.0469 243.448H69.0749L70.3469 245.536L71.6309 243.448H73.6589L71.5229 246.652L73.7549 250H71.7269L70.3469 247.756L68.9669 250H66.9389L69.1589 246.652ZM80.6776 241.432C81.2456 241.432 81.7456 241.472 82.1776 241.552C82.6096 241.624 82.9696 241.744 83.2576 241.912C83.5536 242.08 83.7736 242.304 83.9176 242.584C84.0696 242.856 84.1456 243.196 84.1456 243.604C84.1456 244.092 84.0336 244.504 83.8096 244.84C83.5856 245.176 83.2576 245.38 82.8256 245.452V245.512C83.0416 245.56 83.2416 245.628 83.4256 245.716C83.6096 245.804 83.7696 245.924 83.9056 246.076C84.0496 246.228 84.1616 246.424 84.2416 246.664C84.3216 246.896 84.3616 247.18 84.3616 247.516C84.3616 247.9 84.2856 248.248 84.1336 248.56C83.9896 248.864 83.7816 249.124 83.5096 249.34C83.2376 249.556 82.9056 249.72 82.5136 249.832C82.1296 249.944 81.6976 250 81.2176 250H78.0136V241.432H80.6776ZM80.8816 244.828C81.4096 244.828 81.7736 244.748 81.9736 244.588C82.1816 244.428 82.2856 244.18 82.2856 243.844C82.2856 243.508 82.1656 243.272 81.9256 243.136C81.6936 242.992 81.3136 242.92 80.7856 242.92H79.8256V244.828H80.8816ZM79.8256 246.268V248.5H81.0136C81.5576 248.5 81.9376 248.396 82.1536 248.188C82.3696 247.972 82.4776 247.688 82.4776 247.336C82.4776 247.016 82.3656 246.76 82.1416 246.568C81.9256 246.368 81.5296 246.268 80.9536 246.268H79.8256ZM91.8841 246.712C91.8841 247.8 91.5961 248.64 91.0201 249.232C90.4521 249.824 89.6761 250.12 88.6921 250.12C88.0841 250.12 87.5401 249.988 87.0601 249.724C86.5881 249.46 86.2161 249.076 85.9441 248.572C85.6721 248.06 85.5361 247.44 85.5361 246.712C85.5361 245.624 85.8201 244.788 86.3881 244.204C86.9561 243.62 87.7361 243.328 88.7281 243.328C89.3441 243.328 89.8881 243.46 90.3601 243.724C90.8321 243.988 91.2041 244.372 91.4761 244.876C91.7481 245.38 91.8841 245.992 91.8841 246.712ZM87.3601 246.712C87.3601 247.36 87.4641 247.852 87.6721 248.188C87.8881 248.516 88.2361 248.68 88.7161 248.68C89.1881 248.68 89.5281 248.516 89.7361 248.188C89.9521 247.852 90.0601 247.36 90.0601 246.712C90.0601 246.064 89.9521 245.58 89.7361 245.26C89.5281 244.932 89.1841 244.768 88.7041 244.768C88.2321 244.768 87.8881 244.932 87.6721 245.26C87.4641 245.58 87.3601 246.064 87.3601 246.712ZM95.1498 250H93.3618V240.88H95.1498V250ZM99.094 250.12C98.366 250.12 97.77 249.836 97.306 249.268C96.85 248.692 96.622 247.848 96.622 246.736C96.622 245.616 96.854 244.768 97.318 244.192C97.782 243.616 98.39 243.328 99.142 243.328C99.614 243.328 100.002 243.42 100.306 243.604C100.61 243.788 100.85 244.016 101.026 244.288H101.086C101.062 244.16 101.034 243.976 101.002 243.736C100.97 243.488 100.954 243.236 100.954 242.98V240.88H102.742V250H101.374L101.026 249.148H100.954C100.778 249.42 100.542 249.652 100.246 249.844C99.95 250.028 99.566 250.12 99.094 250.12ZM99.718 248.692C100.206 248.692 100.55 248.548 100.75 248.26C100.95 247.964 101.058 247.524 101.074 246.94V246.748C101.074 246.116 100.974 245.632 100.774 245.296C100.582 244.952 100.222 244.78 99.694 244.78C99.302 244.78 98.994 244.952 98.77 245.296C98.546 245.632 98.434 246.12 98.434 246.76C98.434 247.4 98.546 247.884 98.77 248.212C98.994 248.532 99.31 248.692 99.718 248.692Z" fill="#2D2D2D"/>
</svg>
