<svg width="484" height="361" viewBox="0 0 484 361" fill="none" xmlns="http://www.w3.org/2000/svg">
<path d="M484 316.923H0V317.165H484V316.923Z" fill="#EBEBEB"/>
<path d="M435.503 332.498H403.443V332.74H435.503V332.498Z" fill="#EBEBEB"/>
<path d="M320.621 335.131H312.209V335.373H320.621V335.131Z" fill="#EBEBEB"/>
<path d="M402.475 323.516H383.899V323.758H402.475V323.516Z" fill="#EBEBEB"/>
<path d="M92.5892 325.142H50.7812V325.384H92.5892V325.142Z" fill="#EBEBEB"/>
<path d="M107.341 325.142H101.214V325.384H107.341V325.142Z" fill="#EBEBEB"/>
<path d="M217.945 329.227H127.263V329.469H217.945V329.227Z" fill="#EBEBEB"/>
<path d="M229.416 273.75H42.5049C41.0407 273.748 39.6373 273.164 38.6028 272.128C37.5683 271.092 36.9873 269.687 36.9873 268.223V5.47888C37.0001 4.02303 37.5867 2.631 38.6198 1.60516C39.6529 0.579308 41.049 0.00249394 42.5049 0H229.416C230.882 0 232.288 0.582337 233.324 1.6189C234.361 2.65547 234.943 4.06135 234.943 5.52728V268.223C234.943 269.689 234.361 271.095 233.324 272.132C232.288 273.168 230.882 273.75 229.416 273.75ZM42.5049 0.193601C41.1048 0.196165 39.763 0.754135 38.7739 1.74504C37.7848 2.73594 37.2293 4.07881 37.2293 5.47888V268.223C37.2293 269.623 37.7848 270.966 38.7739 271.957C39.763 272.948 41.1048 273.506 42.5049 273.508H229.416C230.817 273.506 232.16 272.948 233.15 271.958C234.141 270.967 234.699 269.624 234.701 268.223V5.47888C234.699 4.07792 234.141 2.73508 233.15 1.74445C232.16 0.753821 230.817 0.19616 229.416 0.193601H42.5049Z" fill="#EBEBEB"/>
<path d="M438.804 273.75H251.883C250.418 273.748 249.014 273.165 247.978 272.129C246.942 271.093 246.359 269.688 246.356 268.223V5.47888C246.371 4.02215 246.96 2.63013 247.995 1.60455C249.029 0.578969 250.426 0.00246674 251.883 0H438.804C440.258 0.00503795 441.652 0.582977 442.683 1.60855C443.714 2.63413 444.299 4.0247 444.312 5.47888V268.223C444.312 269.686 443.732 271.089 442.7 272.125C441.668 273.161 440.267 273.745 438.804 273.75ZM251.883 0.193601C250.482 0.19616 249.139 0.753821 248.149 1.74445C247.158 2.73508 246.601 4.07792 246.598 5.47888V268.223C246.601 269.624 247.158 270.967 248.149 271.958C249.139 272.948 250.482 273.506 251.883 273.508H438.804C440.205 273.506 441.548 272.948 442.538 271.958C443.529 270.967 444.087 269.624 444.089 268.223V5.47888C444.087 4.07792 443.529 2.73508 442.538 1.74445C441.548 0.753821 440.205 0.19616 438.804 0.193601H251.883Z" fill="#EBEBEB"/>
<path d="M391.846 52.5527H309.847V137.195H391.846V52.5527Z" fill="#F5F5F5"/>
<path d="M391.846 52.5527H390.907V137.195H391.846V52.5527Z" fill="#E6E6E6"/>
<path d="M155.922 55.1445C158.008 42.2948 149.282 30.1873 136.433 28.1015C123.583 26.0157 111.476 34.7415 109.39 47.5912C107.304 60.4408 116.03 72.5483 128.88 74.6341C141.729 76.7199 153.837 67.9941 155.922 55.1445Z" fill="#E0E0E0"/>
<path d="M152.434 54.5789C154.208 43.6554 146.79 33.3627 135.866 31.5896C124.943 29.8165 114.65 37.2343 112.877 48.1578C111.104 59.0813 118.522 69.3739 129.445 71.1471C140.369 72.9202 150.661 65.5024 152.434 54.5789Z" fill="#F0F0F0"/>
<path d="M131.706 37.626V51.6329L122.423 46.3767" fill="#F0F0F0"/>
<path d="M131.706 52.6012C131.54 52.5986 131.378 52.5554 131.232 52.4753L121.968 47.2191C121.745 47.0907 121.582 46.8789 121.515 46.6302C121.447 46.3815 121.482 46.1163 121.61 45.8929C121.738 45.6696 121.95 45.5063 122.199 45.4392C122.448 45.372 122.713 45.4064 122.936 45.5348L130.777 49.9682V37.6262C130.777 37.3695 130.879 37.1233 131.061 36.9417C131.242 36.7602 131.488 36.6582 131.745 36.6582C132.002 36.6582 132.248 36.7602 132.43 36.9417C132.611 37.1233 132.713 37.3695 132.713 37.6262V51.6332C132.713 51.8899 132.611 52.1361 132.43 52.3176C132.248 52.4992 132.002 52.6012 131.745 52.6012H131.706Z" fill="#E0E0E0"/>
<path d="M201.838 104.166H77.1011V242.125H201.838V104.166Z" fill="#E0E0E0"/>
<path d="M205.816 104.166H76.4429V242.125H205.816V104.166Z" fill="#F0F0F0"/>
<path d="M200.347 108.571H81.709V235.796H200.347V108.571Z" fill="white"/>
<path d="M200.347 108.571H196.92V235.796H200.347V108.571Z" fill="#E0E0E0"/>
<path d="M81.4092 200.057V203.483H197.288V200.057H81.4092Z" fill="#E0E0E0"/>
<path d="M200.347 194.297H79.8696V200.056H200.347V194.297Z" fill="#F0F0F0"/>
<path d="M386.174 85.1934H313.574V133.71H386.174V85.1934Z" fill="#FAFAFA"/>
<path d="M386.184 85.1934H380.879V133.71H386.184V85.1934Z" fill="#F0F0F0"/>
<path d="M386.174 85.1934H313.574V92.8406H386.174V85.1934Z" fill="#E0E0E0"/>
<path d="M380.879 85.1934H313.574V92.8406H380.879V85.1934Z" fill="#E6E6E6"/>
<path d="M332.866 97.4971H325.209V103.053H332.866V97.4971Z" fill="white"/>
<path d="M341.956 97.4971H334.299V103.053H341.956V97.4971Z" fill="white"/>
<path d="M351.055 97.4971H343.398V103.053H351.055V97.4971Z" fill="white"/>
<path d="M360.144 97.4971H352.487V103.053H360.144V97.4971Z" fill="white"/>
<path d="M369.244 97.4971H361.587V103.053H369.244V97.4971Z" fill="white"/>
<path d="M378.343 97.4971H370.686V103.053H378.343V97.4971Z" fill="white"/>
<path d="M323.767 104.544H316.11V110.1H323.767V104.544Z" fill="white"/>
<path d="M332.866 104.544H325.209V110.1H332.866V104.544Z" fill="white"/>
<path d="M341.956 104.544H334.299V110.1H341.956V104.544Z" fill="white"/>
<path d="M351.055 104.544H343.398V110.1H351.055V104.544Z" fill="white"/>
<path d="M360.144 104.544H352.487V110.1H360.144V104.544Z" fill="white"/>
<path d="M369.244 104.544H361.587V110.1H369.244V104.544Z" fill="white"/>
<path d="M378.343 104.544H370.686V110.1H378.343V104.544Z" fill="white"/>
<path d="M323.767 111.591H316.11V117.147H323.767V111.591Z" fill="white"/>
<path d="M332.866 111.591H325.209V117.147H332.866V111.591Z" fill="white"/>
<path d="M341.956 111.591H334.299V117.147H341.956V111.591Z" fill="white"/>
<path d="M351.055 111.591H343.398V117.147H351.055V111.591Z" fill="white"/>
<path d="M360.144 111.591H352.487V117.147H360.144V111.591Z" fill="white"/>
<path d="M369.244 111.591H361.587V117.147H369.244V111.591Z" fill="#E6E6E6"/>
<path d="M378.343 111.591H370.686V117.147H378.343V111.591Z" fill="white"/>
<path d="M323.767 118.628H316.11V124.184H323.767V118.628Z" fill="white"/>
<path d="M332.866 118.628H325.209V124.184H332.866V118.628Z" fill="white"/>
<path d="M341.956 118.628H334.299V124.184H341.956V118.628Z" fill="white"/>
<path d="M351.055 118.628H343.398V124.184H351.055V118.628Z" fill="white"/>
<path d="M360.144 118.628H352.487V124.184H360.144V118.628Z" fill="white"/>
<path d="M369.244 118.628H361.587V124.184H369.244V118.628Z" fill="white"/>
<path d="M378.343 118.628H370.686V124.184H378.343V118.628Z" fill="white"/>
<path d="M323.767 125.676H316.11V131.232H323.767V125.676Z" fill="white"/>
<path d="M332.866 125.676H325.209V131.232H332.866V125.676Z" fill="white"/>
<path d="M341.956 125.676H334.299V131.232H341.956V125.676Z" fill="white"/>
<path d="M351.055 125.676H343.398V131.232H351.055V125.676Z" fill="white"/>
<path d="M360.144 125.676H352.487V131.232H360.144V125.676Z" fill="white"/>
<path d="M325.485 97.1013L324.917 97.8848L332.578 103.445L333.147 102.662L325.485 97.1013Z" fill="#E6E6E6"/>
<path d="M332.582 97.1261L324.917 102.683L325.485 103.466L333.15 97.9098L332.582 97.1261Z" fill="#E6E6E6"/>
<path d="M334.586 97.1033L334.017 97.8867L341.679 103.447L342.248 102.664L334.586 97.1033Z" fill="#E6E6E6"/>
<path d="M341.681 97.1192L334.016 102.676L334.584 103.46L342.249 97.9029L341.681 97.1192Z" fill="#E6E6E6"/>
<path d="M343.676 97.0965L343.108 97.8799L350.77 103.44L351.338 102.657L343.676 97.0965Z" fill="#E6E6E6"/>
<path d="M350.781 97.1212L343.116 102.678L343.684 103.461L351.349 97.9049L350.781 97.1212Z" fill="#E6E6E6"/>
<path d="M352.771 97.1062L352.203 97.8896L359.865 103.45L360.433 102.667L352.771 97.1062Z" fill="#E6E6E6"/>
<path d="M359.873 97.1202L352.208 102.677L352.776 103.46L360.441 97.9039L359.873 97.1202Z" fill="#E6E6E6"/>
<path d="M361.871 97.0984L361.303 97.8818L368.965 103.442L369.533 102.659L361.871 97.0984Z" fill="#E6E6E6"/>
<path d="M368.973 97.1231L361.308 102.68L361.876 103.463L369.541 97.9068L368.973 97.1231Z" fill="#E6E6E6"/>
<path d="M370.966 97.0994L370.397 97.8828L378.059 103.443L378.628 102.66L370.966 97.0994Z" fill="#E6E6E6"/>
<path d="M378.065 97.1221L370.4 102.679L370.968 103.462L378.633 97.9059L378.065 97.1221Z" fill="#E6E6E6"/>
<path d="M370.96 104.146L370.391 104.93L378.053 110.49L378.622 109.707L370.96 104.146Z" fill="#E6E6E6"/>
<path d="M378.062 104.165L370.397 109.722L370.965 110.505L378.63 104.949L378.062 104.165Z" fill="#E6E6E6"/>
<path d="M361.865 104.136L361.297 104.92L368.959 110.48L369.527 109.697L361.865 104.136Z" fill="#E6E6E6"/>
<path d="M368.97 104.156L361.305 109.713L361.873 110.497L369.538 104.94L368.97 104.156Z" fill="#E6E6E6"/>
<path d="M352.765 104.143L352.196 104.927L359.858 110.487L360.427 109.704L352.765 104.143Z" fill="#E6E6E6"/>
<path d="M359.87 104.163L352.206 109.72L352.774 110.503L360.439 104.947L359.87 104.163Z" fill="#E6E6E6"/>
<path d="M343.68 104.134L343.111 104.917L350.773 110.478L351.342 109.694L343.68 104.134Z" fill="#E6E6E6"/>
<path d="M350.778 104.155L343.113 109.712L343.681 110.496L351.346 104.939L350.778 104.155Z" fill="#E6E6E6"/>
<path d="M334.58 104.141L334.011 104.925L341.673 110.485L342.242 109.702L334.58 104.141Z" fill="#E6E6E6"/>
<path d="M341.678 104.162L334.014 109.719L334.582 110.502L342.247 104.946L341.678 104.162Z" fill="#E6E6E6"/>
<path d="M325.479 104.148L324.911 104.932L332.573 110.492L333.141 109.709L325.479 104.148Z" fill="#E6E6E6"/>
<path d="M332.579 104.159L324.914 109.716L325.482 110.5L333.147 104.943L332.579 104.159Z" fill="#E6E6E6"/>
<path d="M316.384 104.138L315.816 104.922L323.478 110.482L324.046 109.699L316.384 104.138Z" fill="#E6E6E6"/>
<path d="M323.487 104.161L315.822 109.718L316.39 110.501L324.055 104.945L323.487 104.161Z" fill="#E6E6E6"/>
<path d="M316.386 111.172L315.818 111.955L323.48 117.516L324.048 116.732L316.386 111.172Z" fill="#E6E6E6"/>
<path d="M323.49 111.168L315.83 116.731L316.398 117.515L324.058 111.951L323.49 111.168Z" fill="#E6E6E6"/>
<path d="M325.481 111.173L324.912 111.956L332.574 117.517L333.143 116.733L325.481 111.173Z" fill="#E6E6E6"/>
<path d="M332.577 111.17L324.917 116.733L325.486 117.517L333.146 111.953L332.577 111.17Z" fill="#E6E6E6"/>
<path d="M334.572 111.175L334.003 111.958L341.665 117.519L342.234 116.735L334.572 111.175Z" fill="#E6E6E6"/>
<path d="M341.672 111.176L334.012 116.739L334.581 117.522L342.241 111.959L341.672 111.176Z" fill="#E6E6E6"/>
<path d="M343.666 111.175L343.098 111.958L350.76 117.519L351.328 116.735L343.666 111.175Z" fill="#E6E6E6"/>
<path d="M350.769 111.178L343.109 116.741L343.678 117.524L351.338 111.961L350.769 111.178Z" fill="#E6E6E6"/>
<path d="M352.767 111.178L352.198 111.961L359.86 117.522L360.429 116.738L352.767 111.178Z" fill="#E6E6E6"/>
<path d="M359.864 111.174L352.204 116.737L352.773 117.521L360.433 111.957L359.864 111.174Z" fill="#E6E6E6"/>
<path d="M369.737 62.8623H330.407V72.581H369.737V62.8623Z" fill="#E6E6E6"/>
<path d="M357.763 57.751H342.392V60.3549H357.763V57.751Z" fill="#E6E6E6"/>
<path d="M242 360.638C345.656 360.638 429.686 355.732 429.686 349.68C429.686 343.629 345.656 338.723 242 338.723C138.344 338.723 54.3145 343.629 54.3145 349.68C54.3145 355.732 138.344 360.638 242 360.638Z" fill="#F5F5F5"/>
<path d="M250.712 42.9307H206.542C202.522 42.9307 198.665 44.5258 195.82 47.366C192.974 50.2062 191.371 54.0594 191.364 58.0799V100.962C191.36 102.958 191.75 104.934 192.511 106.778C193.272 108.623 194.39 110.299 195.8 111.71C197.21 113.122 198.884 114.242 200.728 115.005C202.571 115.769 204.547 116.161 206.542 116.16H235.698L246.162 132.18V116.16H250.712C252.704 116.161 254.677 115.77 256.518 115.008C258.359 114.246 260.032 113.129 261.44 111.72C262.849 110.311 263.967 108.638 264.728 106.798C265.49 104.957 265.882 102.984 265.88 100.991V58.0799C265.875 54.0603 264.275 50.2071 261.431 47.3666C258.587 44.5261 254.731 42.9307 250.712 42.9307Z" fill="#407BFF"/>
<path opacity="0.7" d="M250.712 42.9307H206.542C202.522 42.9307 198.665 44.5258 195.82 47.366C192.974 50.2062 191.371 54.0594 191.364 58.0799V100.962C191.36 102.958 191.75 104.934 192.511 106.778C193.272 108.623 194.39 110.299 195.8 111.71C197.21 113.122 198.884 114.242 200.728 115.005C202.571 115.769 204.547 116.161 206.542 116.16H235.698L246.162 132.18V116.16H250.712C252.704 116.161 254.677 115.77 256.518 115.008C258.359 114.246 260.032 113.129 261.44 111.72C262.849 110.311 263.967 108.638 264.728 106.798C265.49 104.957 265.882 102.984 265.88 100.991V58.0799C265.875 54.0603 264.275 50.2071 261.431 47.3666C258.587 44.5261 254.731 42.9307 250.712 42.9307Z" fill="white"/>
<path d="M223.956 107.312C220.479 107.271 217.053 106.457 213.928 104.931C209.698 102.918 206.871 100.004 205.971 96.8C205.642 96.6451 205.313 96.4708 205.003 96.2869C203.341 95.2084 201.929 93.7865 200.862 92.1168C199.795 90.4471 199.098 88.5684 198.818 86.6069C197.947 80.9356 198.828 75.1336 201.344 69.9767C201.105 68.7009 201.027 67.4 201.112 66.1047C201.383 61.5357 203.658 57.4508 207.055 55.4567C209.263 54.1878 211.882 53.8401 214.344 54.4887C217.936 52.0406 222.102 50.5694 226.435 50.2198C230.704 49.9157 234.947 51.0954 238.447 53.5594C240.406 52.9947 242.47 52.9047 244.47 53.2969C246.47 53.6892 248.347 54.5523 249.947 55.8148C252.591 58.0909 254.313 61.2545 254.787 64.7108C255.027 66.4494 255.011 68.2138 254.739 69.9476C256.345 71.8611 257.51 74.1042 258.152 76.518C258.795 78.9319 258.898 81.4575 258.456 83.9159C257.457 87.9818 255.024 91.5501 251.603 93.9637C252.001 94.9321 252.176 95.9774 252.116 97.0226C251.864 100.478 248.97 102.995 246.211 103.953C243.289 104.798 240.199 104.878 237.237 104.186C235.177 105.495 232.776 106.168 230.336 106.122C228.305 106.922 226.139 107.326 223.956 107.312ZM207.375 97.3614C208.817 100.875 212.641 103.044 214.422 103.886C219.813 106.451 225.505 106.857 229.91 105.057C229.935 105.047 229.962 105.047 229.987 105.057C230.374 104.892 230.752 104.718 231.12 104.525C231.847 104.13 232.543 103.68 233.201 103.179C231.781 102.68 230.467 101.918 229.329 100.933C228.868 100.518 228.447 100.062 228.07 99.5684C225.138 99.5402 222.23 99.0267 219.465 98.0487C218.849 97.8217 218.245 97.5632 217.655 97.2743C214.304 98.2662 210.742 98.2964 207.375 97.3614ZM234.537 103.576C234.051 103.991 233.54 104.376 233.007 104.728C233.902 104.554 234.768 104.258 235.582 103.847L234.537 103.576ZM238.409 103.208C240.872 103.692 243.416 103.573 245.824 102.86C248.224 102.027 250.751 99.8685 250.954 96.9355C251.008 96.1592 250.896 95.3804 250.625 94.651C249.91 95.1199 249.17 95.5497 248.408 95.9384C246.024 97.1131 243.495 97.966 240.887 98.4746C240.54 100.262 239.675 101.908 238.399 103.208H238.409ZM235.563 102.647C236.047 102.763 236.531 102.869 236.966 102.956C238.295 101.872 239.233 100.383 239.638 98.7166L238.67 98.8812C237.762 100.227 236.718 101.476 235.553 102.608L235.563 102.647ZM229.61 99.5588C229.774 99.7233 229.939 99.8879 230.113 100.043C231.329 101.071 232.747 101.833 234.275 102.279C235.317 101.312 236.258 100.242 237.083 99.0844C235.65 99.2587 234.275 99.3652 232.998 99.4426C231.904 99.5007 230.771 99.5491 229.6 99.5588H229.61ZM228.642 98.3972C230.113 98.3972 231.546 98.3972 232.901 98.281C234.45 98.1939 236.153 98.0584 237.934 97.8067C238.447 97.0032 238.951 96.1417 239.444 95.2124L239.861 94.409C239.619 92.8597 239.173 91.3494 238.535 89.9175C236.575 90.6863 234.52 91.1845 232.426 91.3985C230.578 92.0955 228.767 92.8989 226.977 93.683L226.667 93.8282C227.058 95.4565 227.733 97.0031 228.661 98.3972H228.642ZM219.349 96.7419L219.852 96.9355C222.227 97.7827 224.718 98.2593 227.238 98.3488C226.51 97.077 225.956 95.7127 225.592 94.2928C223.56 95.2126 221.482 96.03 219.368 96.7419H219.349ZM239.938 96.7419C239.774 97.0323 239.609 97.3227 239.444 97.5937L239.861 97.526C239.856 97.4712 239.856 97.4162 239.861 97.3614C239.928 97.1291 239.948 96.9258 239.958 96.7128L239.938 96.7419ZM241.051 94.6413C241.148 95.5196 241.148 96.4057 241.051 97.284C243.399 96.7851 245.675 95.9949 247.827 94.9317C248.603 94.5412 249.353 94.1015 250.073 93.6152C249.304 92.2878 248.163 91.2143 246.792 90.5273C245.654 89.9776 244.429 89.6335 243.171 89.5109C242.556 91.2506 241.841 92.9538 241.032 94.6123L241.051 94.6413ZM206.939 95.9965C209.892 97.0541 213.093 97.2091 216.135 96.4418C214.449 95.4377 213.008 94.0689 211.92 92.4358C210.831 90.8027 210.121 88.9467 209.843 87.0038C207.994 89.6368 206.503 92.3762 206.842 95.3673C206.867 95.5698 206.906 95.7703 206.958 95.9675L206.939 95.9965ZM210.811 85.6292C210.944 87.8253 211.662 89.9459 212.891 91.7707C214.12 93.5955 215.815 95.0579 217.8 96.0062C220.385 95.2157 222.911 94.2453 225.36 93.1022C225.205 92.3762 225.079 91.6308 224.992 90.8855C223.606 90.5595 222.257 90.0924 220.965 89.4916C219.194 88.6494 215.051 86.2488 214.906 82.1154V81.7088C214.509 81.7088 214.102 81.7088 213.696 81.7088C213.134 82.5413 212.524 83.3835 211.886 84.245L211.527 84.7193L210.811 85.6292ZM201.731 71.8643C199.761 76.4543 199.123 81.5067 199.892 86.4424C200.157 88.2365 200.797 89.9545 201.771 91.4841C202.745 93.0138 204.031 94.3205 205.545 95.3189L205.642 95.377C205.274 91.5631 207.5 88.1557 209.756 85.1162L210.53 84.0804L210.888 83.6061C211.392 82.9382 211.856 82.2703 212.331 81.612C210.208 81.2544 208.21 80.3653 206.523 79.0275C204.256 77.1598 202.604 74.654 201.78 71.8353L201.731 71.8643ZM243.549 88.388C244.854 88.5408 246.124 88.9139 247.305 89.4916C248.845 90.2646 250.135 91.4597 251.022 92.9376C254.133 90.6982 256.346 87.4248 257.265 83.7029C257.648 81.5795 257.588 79.4 257.088 77.3011C256.588 75.2021 255.66 73.2292 254.361 71.5061C253.892 73.4868 253.18 75.4018 252.241 77.2076C250.284 81.0297 247.463 84.3438 244.004 86.8876C243.936 87.3813 243.752 87.875 243.597 88.359L243.549 88.388ZM226.125 91.2146C226.193 91.7083 226.28 92.1826 226.376 92.7053L226.483 92.6569L229.058 91.534C228.09 91.4746 227.127 91.3582 226.173 91.1856L226.125 91.2146ZM239.59 89.5496C240.029 90.5621 240.389 91.6075 240.664 92.6763C241.138 91.6115 241.574 90.5273 241.971 89.4335C241.192 89.4133 240.413 89.4424 239.638 89.5206L239.59 89.5496ZM226.038 90.0143C228.056 90.3988 230.12 90.4933 232.165 90.295C234.05 89.5773 235.993 89.0235 237.973 88.6397C237.146 87.0437 236.174 85.5272 235.069 84.1095C232.203 85.1127 229.129 85.3724 226.134 84.8645C225.926 86.5766 225.897 88.3058 226.047 90.024L226.038 90.0143ZM216.048 81.6992C216.038 81.8507 216.038 82.0026 216.048 82.1541C216.174 85.7454 220.21 87.9621 221.449 88.5139C222.542 89.0348 223.683 89.4466 224.857 89.7433C224.741 88.0389 224.789 86.3272 225.002 84.6322C223.788 84.3437 222.609 83.9216 221.488 83.3738C220.31 82.8018 219.213 82.0759 218.226 81.2152C217.519 81.4339 216.793 81.5862 216.058 81.6701L216.048 81.6992ZM236.182 83.6352C237.3 85.1335 238.272 86.7347 239.086 88.4171C240.445 87.7957 241.741 87.047 242.958 86.181C244.586 80.3532 245.069 74.2652 244.381 68.2536C244.218 66.7358 243.946 65.2315 243.568 63.7524C240.75 62.7666 237.826 62.1168 234.856 61.8164C233.57 61.6751 232.278 61.6007 230.984 61.5938C229.97 63.6699 229.094 65.8106 228.361 68.002L228.225 68.3698C227.437 70.7227 226.419 72.9923 225.186 75.1458C226.004 75.3478 226.801 75.6266 227.567 75.9783L227.916 75.3394C229.097 72.8705 231.028 70.8378 233.433 69.5314C234.689 68.8703 236.116 68.6088 237.525 68.7818C238.933 68.9548 240.255 69.5541 241.313 70.4994C242.193 71.4892 242.764 72.7155 242.955 74.0265C243.146 75.3374 242.949 76.6757 242.387 77.8756C241.252 80.1729 239.377 82.0211 237.063 83.1221C236.831 83.3448 236.511 83.4996 236.192 83.6352H236.182ZM241.99 88.2428H242.426C242.426 88.1364 242.494 88.0202 242.532 87.904C242.348 88.0299 242.165 88.1364 242 88.2428H241.99ZM244.972 64.2655C245.264 65.5422 245.481 66.8352 245.62 68.1375C246.267 73.8 245.904 79.5325 244.546 85.0678C247.329 82.7517 249.612 79.8928 251.254 76.6656C252.307 74.6675 253.057 72.5242 253.48 70.3058C252.826 69.5241 252.107 68.7987 251.332 68.1375C249.422 66.5241 247.273 65.2178 244.962 64.2655H244.972ZM226.318 83.6933C228.994 84.1511 231.742 83.9517 234.324 83.1124C233.179 81.7186 231.92 80.4234 230.558 79.2404C229.822 78.6067 229.028 78.0428 228.187 77.5561C227.295 79.511 226.664 81.5743 226.309 83.6933H226.318ZM219.465 80.7118C220.255 81.3319 221.109 81.8672 222.011 82.309C223.025 82.8038 224.089 83.1868 225.186 83.4513C225.552 81.2407 226.203 79.0868 227.122 77.0431C226.308 76.6586 225.449 76.3758 224.566 76.2009C223.452 77.863 221.98 79.2553 220.259 80.2762C220.007 80.4311 219.736 80.5763 219.455 80.7118H219.465ZM228.69 76.53C229.621 77.0578 230.496 77.6772 231.304 78.3789C232.821 79.6833 234.214 81.1253 235.466 82.6865C235.859 82.5288 236.243 82.3511 236.618 82.1541C238.696 81.1796 240.384 79.5322 241.41 77.4787C241.877 76.491 242.048 75.3886 241.9 74.3057C241.752 73.2229 241.292 72.2065 240.577 71.3803C238.864 69.6476 235.979 69.696 234.024 70.6349C231.841 71.8295 230.088 73.6778 229.009 75.9202L228.69 76.53ZM214.441 80.6053C214.644 80.6053 214.848 80.6053 215.051 80.6053C215.219 79.874 215.517 79.1788 215.932 78.5532L215.816 78.3789C215.38 79.1049 214.896 79.8503 214.431 80.6053H214.441ZM202.544 70.1122C203.148 73.2373 204.822 76.0544 207.278 78.0788C208.955 79.4062 210.964 80.2498 213.086 80.5182C213.841 79.376 214.528 78.2628 215.138 77.1689C214.783 76.4014 214.53 75.5912 214.383 74.7586C213.696 70.7801 215.68 66.5016 219.32 63.7718C219.458 61.7586 218.923 59.7565 217.8 58.08C216.969 56.9932 215.823 56.1888 214.518 55.7761C213.609 56.3956 212.786 57.0345 212.06 57.6347C208.035 61.0708 204.788 65.3242 202.535 70.1122H202.544ZM216.677 79.5793C216.523 79.8644 216.393 80.1623 216.29 80.4698C216.629 80.4698 216.958 80.344 217.258 80.2665C217.055 80.0439 216.832 79.8116 216.667 79.5793H216.677ZM217.355 78.6112C217.707 79.0677 218.092 79.4979 218.507 79.8987C218.923 79.7327 219.327 79.5387 219.717 79.3179C221.109 78.486 222.32 77.3833 223.279 76.0751C222.748 76.0473 222.217 76.0732 221.691 76.1525C220.001 76.4173 218.46 77.2752 217.345 78.5725L217.355 78.6112ZM216.474 77.2367L216.687 77.6045C217.96 76.2155 219.666 75.2978 221.527 75.0006C222.362 74.889 223.208 74.889 224.044 75.0006C225.355 72.8065 226.423 70.476 227.228 68.0504L227.354 67.6728C228.054 65.6399 228.855 63.6433 229.755 61.6906C226.93 61.7475 224.155 62.4494 221.643 63.7428C221.244 63.956 220.859 64.1953 220.491 64.4591C220.491 64.9818 220.404 65.5336 220.326 66.095C219.728 70.0009 218.419 73.7641 216.464 77.198L216.474 77.2367ZM219.242 65.4271C216.735 67.7019 214.944 71.0899 215.554 74.6037C215.631 75.0375 215.741 75.4647 215.883 75.8815C217.544 72.7738 218.66 69.405 219.184 65.9208L219.242 65.4271ZM244.604 62.92C247.322 63.9352 249.846 65.4085 252.067 67.276C252.631 67.7617 253.171 68.2753 253.684 68.8151C253.812 67.5259 253.786 66.2261 253.606 64.9431C253.18 61.7751 251.614 58.8709 249.202 56.7732C247.861 55.7131 246.302 54.9622 244.637 54.574C242.972 54.1858 241.242 54.1699 239.57 54.5274C240.25 55.1151 240.875 55.7631 241.439 56.4634C242.908 58.3864 243.984 60.5805 244.604 62.92ZM211.876 55.3696C210.387 55.3644 208.924 55.7552 207.636 56.5021C204.567 58.3123 202.506 62.0391 202.254 66.2402C202.208 66.8847 202.208 67.5317 202.254 68.1762C204.527 63.8457 207.605 59.9886 211.324 56.8119C211.847 56.386 212.408 55.9407 213.018 55.4954C212.642 55.4116 212.26 55.3566 211.876 55.3308V55.3696ZM215.748 55.0308C216.946 55.5466 217.987 56.3677 218.768 57.412C219.916 59.0623 220.528 61.026 220.52 63.0361C220.704 62.92 220.898 62.8135 221.101 62.707C223.975 61.2419 227.158 60.482 230.384 60.4903C231.391 58.5973 232.774 56.9304 234.45 55.5922C235.261 54.9733 236.149 54.4624 237.092 54.0724C233.942 52.0722 230.235 51.1294 226.512 51.3814C222.676 51.6845 218.973 52.9243 215.728 54.992L215.748 55.0308ZM231.73 60.4903C232.814 60.4903 233.937 60.5871 235.118 60.7129C237.886 61.0018 240.617 61.5759 243.268 62.4263C242.679 60.5333 241.758 58.7601 240.548 57.1894C239.87 56.3296 239.09 55.5559 238.225 54.8856C237.117 55.2497 236.079 55.7996 235.156 56.5118C233.767 57.5933 232.597 58.9305 231.71 60.4516L231.73 60.4903Z" fill="#263238"/>
<path d="M278.087 251.593C253.887 245.785 226.067 232.765 212.331 210.937C211.153 209.167 210.252 207.228 209.659 205.187C204.277 183.707 233.937 171.046 249.686 164.937C255.302 162.818 261.032 161.011 266.849 159.526L270.876 170.436C261.196 175.731 232.707 190.667 229.668 200.134C229.774 200.134 229.823 199.553 229.765 199.166C229.757 199.058 229.738 198.951 229.707 198.847C229.707 198.847 229.707 198.847 229.707 198.788C241.477 214.393 263.228 222.775 281.524 228.225L283.208 228.69L278.078 251.583L278.087 251.593Z" fill="#EBC0BB"/>
<path d="M277.671 265.512L271.602 261.872L267.856 259.627L237.722 241.573L243.83 209.475C243.83 209.475 261.447 220.277 270.479 223.336C270.479 223.336 276.006 228.525 277.816 238.979C278.101 240.618 278.279 242.274 278.349 243.935C278.349 244.903 278.426 245.871 278.445 246.839C278.708 253.074 278.449 259.32 277.671 265.512Z" fill="#407BFF"/>
<path opacity="0.2" d="M277.671 265.512L271.602 261.873C272.773 256.065 275.851 250.615 278.445 246.811C278.709 253.055 278.45 259.311 277.671 265.512Z" fill="black"/>
<path d="M274.283 141.328C274.224 141.326 274.168 141.304 274.123 141.265C274.079 141.226 274.05 141.173 274.041 141.115C274.041 141.115 273.354 136.023 270.034 134.126C269.98 134.092 269.942 134.039 269.926 133.979C269.91 133.918 269.917 133.853 269.946 133.797C269.979 133.742 270.031 133.702 270.093 133.686C270.155 133.669 270.22 133.678 270.276 133.71C273.809 135.723 274.496 140.834 274.525 141.057C274.531 141.121 274.512 141.184 274.472 141.235C274.433 141.285 274.375 141.318 274.312 141.328H274.283Z" fill="#263238"/>
<path d="M370.744 331.482C371.567 305.386 369.793 279.274 365.449 253.529C364.433 247.479 363.349 241.913 362.274 236.986C360.284 227.288 357.721 217.717 354.598 208.323C354.598 208.323 327.852 227.683 306.421 227.683C294.324 227.657 282.274 226.184 270.527 223.298C278.668 262.163 279.956 308.715 280.043 331.443L370.744 331.482Z" fill="#407BFF"/>
<path d="M262.483 165.886L261.97 148.046L278.349 153.118C278.349 153.118 276.151 169.923 270.866 170.291L262.483 165.886Z" fill="#EEC1BB"/>
<path d="M273.625 137.137L284.089 143.622L278.349 153.118L261.97 148.046L273.625 137.137Z" fill="#EEC1BB"/>
<path d="M297.399 219.63C299.635 217.781 322.857 211.508 325.887 212.515C328.917 213.522 316.972 235.331 305.356 231.313C293.74 227.296 294.795 221.769 297.399 219.63Z" fill="#407BFF"/>
<path d="M327.92 217.742C327.92 217.742 327.552 227.229 308.492 232.262C306.655 234.243 305.189 236.538 304.165 239.038C303.205 237.335 302.458 235.521 301.939 233.637C284.089 236.483 293.982 225.796 293.982 225.796C300.041 222.708 302.287 218.875 302.49 214.761C302.538 212.404 302.13 210.061 301.29 207.859C300.72 206.205 300.048 204.589 299.277 203.019L302.094 199.224L316.71 185.169C316.937 189.579 317.445 193.969 318.23 198.314C319.818 206.697 322.731 214.625 327.92 217.742Z" fill="#EEC1BB"/>
<path opacity="0.2" d="M318.23 198.295C315.452 204.839 308.976 211.179 302.491 214.751C302.538 212.395 302.131 210.051 301.29 207.849C300.721 206.195 300.048 204.579 299.277 203.009L302.094 199.215L316.711 185.159C316.937 189.566 317.445 193.953 318.23 198.295Z" fill="black"/>
<path d="M308.492 232.223L316.391 239.967C316.391 239.967 332.566 231.555 335.596 218.807L325.916 212.524C325.916 212.524 322.721 224.634 308.492 232.223Z" fill="#407BFF"/>
<path d="M301.938 233.617L291.939 242.968C291.939 242.968 288.473 233.414 289.5 226.212L297.398 219.601C297.398 219.601 296.701 227.954 301.938 233.617Z" fill="#407BFF"/>
<path opacity="0.2" d="M308.492 232.223L316.391 239.967C316.391 239.967 332.566 231.555 335.596 218.807L325.916 212.524C325.916 212.524 322.721 224.634 308.492 232.223Z" fill="white"/>
<path opacity="0.2" d="M301.938 233.617L291.939 242.968C291.939 242.968 288.473 233.414 289.5 226.212L297.398 219.601C297.398 219.601 296.701 227.954 301.938 233.617Z" fill="white"/>
<path d="M279.413 156.351C272.841 161.55 273.925 183.455 284.476 185.575C295.027 187.695 291.852 146.517 279.413 156.351Z" fill="#263238"/>
<path d="M318.83 170.484C319.305 185.885 320.36 194.848 313.39 203.667C302.916 216.928 283.498 212.321 278.465 197.53C273.935 184.21 273.925 161.259 288.261 153.292C302.384 145.432 318.366 155.083 318.83 170.484Z" fill="#EEC1BB"/>
<path d="M309.528 162.914C307.941 171.713 313.874 183.474 318.685 184.549C324.493 187.298 331.492 177.173 332.46 171.965C333.322 167.309 332.024 157.184 329.024 153.312L309.528 162.914Z" fill="#263238"/>
<path d="M326.003 184.887C324.357 188.331 321.569 191.098 318.114 192.719C313.7 194.655 311.6 190.637 312.906 185.943C314.087 181.712 317.805 175.595 322.19 175.653C326.575 175.711 328.094 180.551 326.003 184.887Z" fill="#EEC1BB"/>
<path d="M286.654 179.516C286.654 179.516 284.495 187.056 281.717 190.909C284.099 192.69 287.738 191.277 287.738 191.277L286.654 179.516Z" fill="#D4827D"/>
<path d="M294.495 170.271C294.374 170.301 294.263 170.365 294.176 170.455C294.041 170.594 293.966 170.779 293.966 170.973C293.966 171.166 294.041 171.352 294.176 171.491C294.965 172.334 295.951 172.97 297.045 173.342C298.139 173.713 299.308 173.809 300.448 173.62C300.543 173.602 300.633 173.565 300.713 173.51C300.793 173.456 300.861 173.386 300.913 173.304C300.965 173.222 300.999 173.131 301.014 173.036C301.029 172.94 301.024 172.842 301 172.749C300.979 172.655 300.94 172.567 300.885 172.488C300.83 172.41 300.76 172.343 300.679 172.291C300.598 172.24 300.508 172.205 300.414 172.189C300.319 172.173 300.222 172.176 300.129 172.197C299.235 172.323 298.323 172.232 297.472 171.93C296.621 171.629 295.855 171.126 295.24 170.464C295.145 170.368 295.025 170.3 294.894 170.265C294.763 170.231 294.625 170.233 294.495 170.271Z" fill="#263238"/>
<path d="M282.365 170.368C282.245 170.362 282.126 170.386 282.017 170.439C281.909 170.491 281.816 170.57 281.746 170.668C281.224 171.449 280.528 172.099 279.714 172.567C278.9 173.036 277.989 173.31 277.051 173.369C276.856 173.369 276.669 173.446 276.531 173.584C276.393 173.722 276.315 173.909 276.315 174.105C276.315 174.3 276.393 174.487 276.531 174.625C276.669 174.763 276.856 174.84 277.051 174.84C278.226 174.785 279.372 174.458 280.399 173.883C281.426 173.308 282.304 172.503 282.966 171.53C283.046 171.422 283.095 171.295 283.108 171.162C283.12 171.028 283.095 170.894 283.036 170.774C282.977 170.653 282.886 170.552 282.773 170.48C282.659 170.409 282.528 170.37 282.394 170.368H282.365Z" fill="#263238"/>
<path d="M298.144 179.012C298.094 179.013 298.043 179.003 297.997 178.983C297.95 178.963 297.908 178.933 297.873 178.896C297.418 178.393 295.937 178.393 295.066 178.509C294.991 178.52 294.914 178.507 294.847 178.472C294.779 178.437 294.724 178.383 294.689 178.315C294.655 178.25 294.643 178.176 294.654 178.103C294.664 178.03 294.696 177.962 294.747 177.909C295.135 177.427 295.624 177.036 296.179 176.761C296.734 176.487 297.342 176.337 297.96 176.321C298.046 176.335 298.125 176.38 298.181 176.446C298.238 176.513 298.269 176.597 298.269 176.684C298.269 176.772 298.238 176.856 298.181 176.922C298.125 176.989 298.046 177.033 297.96 177.047C297.26 177.056 296.581 177.291 296.024 177.715C296.881 177.632 297.738 177.881 298.415 178.412C298.482 178.479 298.519 178.57 298.519 178.664C298.519 178.758 298.482 178.849 298.415 178.916C298.38 178.951 298.337 178.977 298.291 178.994C298.244 179.011 298.194 179.017 298.144 179.012Z" fill="#263238"/>
<path d="M279.278 181.015C279.214 181.015 279.151 180.998 279.094 180.967C279.012 180.919 278.952 180.84 278.927 180.748C278.901 180.656 278.913 180.557 278.959 180.473C279.512 179.819 280.295 179.4 281.146 179.302C280.529 179.007 279.835 178.916 279.162 179.041C279.069 179.062 278.97 179.047 278.888 178.998C278.805 178.95 278.744 178.871 278.717 178.779C278.693 178.686 278.707 178.587 278.756 178.503C278.805 178.42 278.885 178.359 278.978 178.334C279.587 178.222 280.214 178.244 280.814 178.398C281.414 178.551 281.973 178.834 282.453 179.225C282.512 179.268 282.556 179.329 282.579 179.398C282.601 179.467 282.601 179.542 282.579 179.612C282.561 179.685 282.52 179.75 282.463 179.799C282.406 179.848 282.335 179.877 282.26 179.883C281.408 179.941 279.927 180.251 279.588 180.851C279.555 180.903 279.509 180.945 279.455 180.974C279.4 181.003 279.34 181.017 279.278 181.015Z" fill="#263238"/>
<path d="M303.633 193.783C303.558 194.406 303.284 194.987 302.851 195.441C302.418 195.895 301.85 196.196 301.232 196.3C298.212 197.268 295.294 198.529 292.52 200.066L292.443 199.93C291.829 198.752 291.014 197.69 290.032 196.794C289.878 196.667 289.701 196.572 289.51 196.513V196.455C289.965 195.836 294.059 190.405 300.603 190.724C301.303 190.736 301.981 190.97 302.539 191.392C302.904 191.67 303.195 192.034 303.386 192.451C303.576 192.868 303.661 193.326 303.633 193.783Z" fill="white"/>
<path opacity="0.2" d="M289.539 196.436L290.023 196.774C289.868 196.648 289.691 196.552 289.5 196.494L289.539 196.436Z" fill="black"/>
<path opacity="0.1" d="M303.217 193.299C301.647 193.475 300.098 193.799 298.59 194.267L298.706 195.052L298.241 194.384C296.984 194.8 295.765 195.328 294.602 195.961L294.873 196.61L294.35 196.107C293.377 196.668 292.457 197.316 291.601 198.043L292.433 199.921C291.82 198.742 291.004 197.68 290.023 196.784L291.32 197.675C292.054 196.885 292.895 196.2 293.818 195.642L293.363 194.568L294.224 195.4C295.369 194.727 296.583 194.179 297.844 193.764L297.486 192.796L298.454 193.541C299.851 193.129 301.284 192.847 302.733 192.699L302.5 191.383C302.87 191.661 303.164 192.028 303.357 192.448C303.55 192.869 303.635 193.331 303.604 193.793L303.217 193.299Z" fill="black"/>
<path d="M331.395 168.432C331.395 168.432 342.498 154.096 330.64 149.401C330.64 149.401 327.562 139.14 321.88 136.672C316.197 134.204 311.619 140.012 311.619 140.012C310.598 137.784 308.935 135.913 306.843 134.638C304.75 133.364 302.324 132.744 299.877 132.858C291.233 133.207 290.023 140.38 290.023 140.38C290.023 140.38 283.382 137.534 277.671 141.348C276.902 141.797 276.23 142.394 275.694 143.106C275.159 143.817 274.77 144.628 274.551 145.491C274.332 146.354 274.287 147.253 274.419 148.133C274.551 149.014 274.857 149.86 275.319 150.621C275.319 150.621 266.762 155.316 269.356 161.269C271.95 167.222 279.036 164.357 279.036 164.357C279.036 164.357 278.842 167.696 283.034 167.822C287.225 167.948 294.011 163.253 294.011 163.253C294.694 164.109 295.561 164.798 296.549 165.269C297.537 165.74 298.618 165.981 299.712 165.973C303.672 166.09 307.331 163.37 307.331 163.37C307.942 164.76 308.85 166 309.99 167.003C311.13 168.006 312.476 168.748 313.932 169.178C318.83 170.484 331.395 168.432 331.395 168.432Z" fill="#263238"/>
<path d="M339.826 150.04L333.292 133.438L320.224 144.532C320.224 144.532 328.839 159.12 333.854 157.387L339.826 150.04Z" fill="#EEC1BB"/>
<path d="M318.298 127.931L311.212 138.008L320.224 144.493L333.292 133.4L318.298 127.931Z" fill="#EEC1BB"/>
<path d="M290.023 143.341H289.974C289.943 143.335 289.914 143.323 289.888 143.306C289.862 143.289 289.839 143.266 289.822 143.24C289.805 143.214 289.793 143.184 289.788 143.153C289.782 143.122 289.783 143.091 289.79 143.06C290.022 141.546 289.835 139.997 289.248 138.582C288.66 137.167 287.696 135.94 286.46 135.035C286.383 135.517 286.199 135.975 285.92 136.375C285.642 136.776 285.278 137.108 284.853 137.349C284.731 137.46 284.587 137.545 284.43 137.599C284.274 137.653 284.108 137.675 283.943 137.665C283.778 137.654 283.617 137.61 283.469 137.536C283.321 137.462 283.189 137.359 283.082 137.233C282.788 136.797 282.645 136.276 282.677 135.751C282.708 135.226 282.912 134.726 283.256 134.329C283.576 133.98 284.428 133.361 286.005 134.164C285.797 132.736 285.057 131.44 283.934 130.534C283.893 130.491 283.87 130.434 283.868 130.375C283.866 130.316 283.886 130.258 283.925 130.212C283.963 130.167 284.017 130.137 284.075 130.128C284.134 130.12 284.194 130.134 284.244 130.166C284.894 130.686 285.43 131.334 285.818 132.07C286.206 132.806 286.438 133.615 286.499 134.445L286.731 134.6C291.252 137.746 290.274 143.07 290.265 143.128C290.256 143.186 290.226 143.239 290.182 143.278C290.138 143.317 290.081 143.339 290.023 143.341ZM284.592 134.271C284.411 134.264 284.23 134.297 284.063 134.367C283.896 134.438 283.746 134.543 283.624 134.677C283.37 134.988 283.218 135.37 283.19 135.771C283.162 136.171 283.26 136.571 283.469 136.913C283.798 137.31 284.273 137.136 284.602 136.913C285.002 136.694 285.342 136.379 285.588 135.995C285.835 135.611 285.982 135.171 286.015 134.716C285.588 134.446 285.097 134.293 284.592 134.271Z" fill="#263238"/>
<path d="M276.945 151.443C274.432 151.464 271.981 150.67 269.958 149.179C267.935 147.689 266.45 145.583 265.726 143.177C265.715 143.146 265.711 143.114 265.713 143.082C265.715 143.05 265.724 143.018 265.738 142.989C265.752 142.96 265.772 142.935 265.797 142.914C265.821 142.893 265.85 142.877 265.881 142.867C265.941 142.849 266.006 142.854 266.062 142.883C266.118 142.912 266.161 142.962 266.181 143.022C266.9 145.363 268.364 147.404 270.351 148.835C272.338 150.267 274.739 151.009 277.187 150.95C277.219 150.947 277.251 150.951 277.282 150.962C277.312 150.972 277.34 150.989 277.364 151.011C277.387 151.032 277.406 151.059 277.419 151.088C277.432 151.118 277.439 151.15 277.439 151.182C277.441 151.245 277.42 151.306 277.378 151.353C277.337 151.4 277.278 151.429 277.216 151.434L276.945 151.443Z" fill="#263238"/>
<path d="M268.862 169.399C268.807 169.398 268.754 169.379 268.712 169.343C268.67 169.308 268.641 169.26 268.63 169.206C268.623 169.175 268.622 169.142 268.628 169.111C268.634 169.079 268.647 169.05 268.665 169.023C268.683 168.997 268.707 168.974 268.734 168.958C268.761 168.941 268.792 168.93 268.823 168.925C274.021 167.957 276.954 162.449 276.983 162.401C276.998 162.372 277.018 162.346 277.042 162.325C277.067 162.304 277.095 162.288 277.126 162.278C277.156 162.268 277.189 162.265 277.221 162.267C277.253 162.27 277.284 162.279 277.313 162.294C277.341 162.31 277.365 162.33 277.385 162.355C277.405 162.38 277.42 162.408 277.429 162.439C277.438 162.469 277.441 162.501 277.438 162.533C277.434 162.565 277.425 162.595 277.409 162.623C277.293 162.856 274.35 168.383 268.91 169.399H268.862Z" fill="#263238"/>
<path d="M327.068 136.023C326.771 136.023 326.478 135.96 326.207 135.839C325.84 135.667 325.518 135.413 325.266 135.095C325.014 134.778 324.839 134.406 324.755 134.01C323.893 134.504 323.11 135.124 322.431 135.849C322.386 135.893 322.325 135.918 322.262 135.918C322.199 135.918 322.138 135.893 322.093 135.849C322.048 135.802 322.022 135.74 322.022 135.675C322.022 135.61 322.048 135.547 322.093 135.501C322.84 134.703 323.709 134.03 324.667 133.507C324.527 132.445 324.596 131.366 324.871 130.331C324.877 130.3 324.89 130.271 324.909 130.245C324.927 130.22 324.951 130.198 324.978 130.182C325.005 130.165 325.036 130.155 325.067 130.15C325.099 130.146 325.131 130.149 325.161 130.157C325.222 130.171 325.275 130.208 325.31 130.261C325.344 130.313 325.357 130.376 325.345 130.438C325.107 131.37 325.035 132.337 325.132 133.294C325.512 133.144 325.915 133.059 326.323 133.042C326.656 133.027 326.988 133.085 327.297 133.21C327.606 133.335 327.885 133.525 328.113 133.768C328.357 133.95 328.525 134.216 328.584 134.515C328.643 134.813 328.589 135.123 328.433 135.384C328.275 135.594 328.068 135.762 327.83 135.874C327.592 135.985 327.33 136.037 327.068 136.023ZM325.2 133.797C325.261 134.14 325.401 134.464 325.61 134.742C325.818 135.021 326.089 135.248 326.4 135.404C326.664 135.535 326.962 135.58 327.252 135.531C327.543 135.482 327.81 135.343 328.017 135.133C328.21 134.852 328.113 134.494 327.746 134.165C327.56 133.973 327.338 133.822 327.091 133.72C326.844 133.618 326.58 133.569 326.313 133.574C325.948 133.59 325.589 133.665 325.248 133.797H325.2Z" fill="#263238"/>
<path d="M311.919 142.751C311.872 142.75 311.826 142.736 311.787 142.71C311.748 142.685 311.716 142.649 311.696 142.606C311.696 142.548 309.596 137.301 314.6 131.329C314.619 131.3 314.644 131.276 314.673 131.258C314.701 131.24 314.734 131.228 314.768 131.223C314.801 131.218 314.836 131.221 314.868 131.23C314.901 131.239 314.932 131.256 314.958 131.278C314.984 131.3 315.005 131.327 315.02 131.357C315.035 131.388 315.043 131.422 315.044 131.456C315.045 131.49 315.038 131.524 315.025 131.555C315.012 131.587 314.993 131.615 314.968 131.639C310.186 137.379 312.142 142.364 312.171 142.422C312.193 142.481 312.191 142.547 312.166 142.605C312.141 142.662 312.094 142.708 312.035 142.732L311.919 142.751Z" fill="#263238"/>
<path d="M336.864 171.133C336.809 171.133 336.755 171.114 336.712 171.079C336.67 171.043 336.641 170.994 336.632 170.939C335.8 166.806 330.001 165.228 329.943 165.208C329.91 165.203 329.878 165.191 329.849 165.172C329.821 165.154 329.797 165.129 329.778 165.101C329.76 165.072 329.748 165.04 329.743 165.007C329.737 164.973 329.739 164.939 329.748 164.906C329.757 164.874 329.773 164.843 329.794 164.817C329.815 164.79 329.842 164.769 329.872 164.754C329.903 164.738 329.936 164.73 329.97 164.728C330.003 164.726 330.037 164.732 330.069 164.744C330.321 164.812 336.216 166.409 337.106 170.842C337.118 170.906 337.104 170.972 337.068 171.026C337.032 171.081 336.976 171.119 336.913 171.133H336.864Z" fill="#263238"/>
<path opacity="0.2" d="M365.401 253.529C354.753 248.902 353.475 236.279 353.475 236.279C356.391 235.756 359.393 236 362.187 236.986C363.3 242 364.384 247.479 365.401 253.529Z" fill="black"/>
<path d="M345.421 215.912C360.445 203.773 378.207 186.61 382.883 167.396C382.96 167.734 383.231 168.576 383.454 168.606C383.677 168.635 383.367 168.276 382.902 167.87C372.399 160.503 347.415 158.916 333.892 157.474L333.312 145.858C350.339 143.438 372.748 142.15 389.068 148.481C399.455 152.663 406.028 161.191 403.424 173.039C398.884 197.065 381.46 217.044 363.116 231.961L361.18 233.413L360.212 234.139L359.109 234.943L345.392 215.902L345.421 215.912Z" fill="#EBC0BB"/>
<path d="M342.566 215.864C342.566 215.864 365.498 196.988 373.648 185.053L392.437 208.362L364.065 247.285C364.065 247.285 353.63 244.924 347.706 235.573C344.115 229.642 342.328 222.793 342.566 215.864Z" fill="#407BFF"/>
<path d="M99.568 318.568C96.8576 266.974 111.862 232.968 124.92 213.521C139.188 192.283 154.047 183.435 154.667 183.067L158.093 188.875L156.38 185.971L158.103 188.875C157.958 188.953 143.738 197.5 130.321 217.596C117.941 236.153 103.73 268.658 106.334 318.171L99.568 318.568Z" fill="#407BFF"/>
<g opacity="0.2">
<path d="M99.568 318.568C96.8576 266.974 111.862 232.968 124.92 213.521C139.188 192.283 154.047 183.435 154.667 183.067L158.093 188.875L156.38 185.971L158.103 188.875C157.958 188.953 143.738 197.5 130.321 217.596C117.941 236.153 103.73 268.658 106.334 318.171L99.568 318.568Z" fill="black"/>
</g>
<g opacity="0.2">
<path d="M157.784 189.108L154.164 183.377L154.686 183.058L158.084 188.924L157.784 189.108Z" fill="black"/>
<path d="M99.3168 312.16V311.192L106.093 311.047V312.015L99.3168 312.16ZM99.249 305.277V304.309L106.025 304.368V305.336L99.249 305.277ZM106.161 298.637L99.3845 298.395V297.427L106.161 297.708V298.637ZM106.509 291.987L99.733 291.513L99.8008 290.545L106.577 291.048L106.509 291.987ZM107.09 285.346L100.314 284.649L100.42 283.681L107.196 284.427L107.09 285.346ZM107.903 278.754L101.195 277.786L101.34 276.818L108.038 277.786L107.903 278.754ZM108.958 272.191L102.289 271.039L102.472 270.071L109.132 271.31L108.958 272.191ZM110.275 265.677L103.653 264.263L103.876 263.295L110.478 264.805L110.275 265.677ZM111.843 259.23L105.299 257.487L105.551 256.519L112.085 258.3L111.843 259.23ZM113.682 252.87L107.216 250.847L107.516 249.879L113.972 251.941L113.682 252.87ZM115.802 246.597L109.432 244.284L109.771 243.316L116.121 245.668L115.802 246.597ZM118.202 240.421L111.94 237.827L112.327 236.908L118.561 239.55L118.202 240.421ZM120.874 234.371L114.747 231.467L115.173 230.567L121.281 233.471L120.874 234.371ZM123.846 228.467L117.864 225.282L118.338 224.401L124.291 227.644L123.846 228.467ZM127.098 222.726L121.29 219.232L121.803 218.38L127.611 221.913L127.098 222.726ZM130.641 217.16L125.027 213.366L125.579 212.553L131.174 216.376L130.641 217.16ZM134.513 211.788L129.112 207.693L129.712 206.909L135.084 211.033L134.513 211.788ZM138.627 206.638L133.419 202.311L134.068 201.556L139.198 205.97L138.627 206.638ZM143.022 201.74L138.114 197.074L138.811 196.348L143.651 201.072L143.022 201.74ZM147.697 197.132L143.099 192.157L143.835 191.479L148.385 196.494L147.697 197.132ZM152.644 192.864L148.414 187.569L149.208 186.939L153.38 192.283L152.644 192.864Z" fill="black"/>
<path d="M99.5681 318.568L99.5391 318.065L106.315 317.745L106.334 318.171L99.5681 318.568Z" fill="black"/>
</g>
<path d="M166.496 167.512C164.52 166.644 162.362 166.273 160.209 166.43C158.057 166.587 155.975 167.267 154.146 168.412C152.316 169.557 150.795 171.132 149.713 173C148.631 174.868 148.022 176.971 147.939 179.128L155.209 195.119L166.477 188.034L177.705 181.016L166.496 167.512Z" fill="#407BFF"/>
<path opacity="0.2" d="M166.496 167.512C164.52 166.644 162.362 166.273 160.209 166.43C158.057 166.587 155.975 167.267 154.146 168.412C152.316 169.557 150.795 171.132 149.713 173C148.631 174.868 148.022 176.971 147.939 179.128L155.209 195.119L166.477 188.034L177.705 181.016L166.496 167.512Z" fill="white"/>
<path d="M188.76 185.856C185.798 181.151 180.135 179.699 178.557 179.38H178.48L178.131 179.312C174.743 178.809 169.255 180.445 163.824 183.852C158.394 187.259 154.551 191.509 153.534 194.771C153.534 194.771 153.534 194.897 153.438 195.12V195.187C153.041 196.755 151.899 202.476 154.851 207.19C157.271 211.062 166.835 209.388 176.215 203.493C185.595 197.598 191.161 189.728 188.76 185.856Z" fill="#407BFF"/>
<path opacity="0.2" d="M154.773 207.21C157.193 211.082 166.757 209.407 176.137 203.512C185.517 197.617 191.16 189.728 188.76 185.856C186.359 181.984 176.766 183.659 167.386 189.554C158.006 195.449 152.344 203.357 154.773 207.21Z" fill="white"/>
<path opacity="0.2" d="M187.966 186.33C190.057 189.66 184.491 196.91 175.537 202.544C166.583 208.178 157.629 210.046 155.528 206.726C154.279 204.722 155.799 201.295 159.178 197.646C164.47 192.192 170.998 188.091 178.208 185.691C182.952 184.22 186.717 184.336 187.966 186.33Z" fill="black"/>
<path d="M178.412 185.982C179.199 187.233 179.731 188.626 179.978 190.083C180.226 191.539 180.185 193.03 179.856 194.471C179.528 195.911 178.918 197.273 178.064 198.478C177.209 199.683 176.125 200.708 174.874 201.494C173.623 202.28 172.23 202.812 170.774 203.06C169.317 203.308 167.826 203.266 166.385 202.938C164.945 202.609 163.583 202 162.378 201.145C161.173 200.291 160.148 199.207 159.362 197.956L159.178 197.646C164.471 192.192 170.998 188.092 178.209 185.691C178.277 185.779 178.345 185.856 178.412 185.982Z" fill="white"/>
<path d="M128.366 329.943V323.486C128.366 321.84 127.712 320.262 126.549 319.099C125.385 317.935 123.807 317.281 122.161 317.281H83.8963C82.2506 317.281 80.6724 317.935 79.5088 319.099C78.3451 320.262 77.6914 321.84 77.6914 323.486V329.943H128.366Z" fill="#407BFF"/>
<path d="M128.366 326.603H77.6914V329.942H128.366V326.603Z" fill="black"/>
<path d="M78.205 288.716C78.0532 291.083 78.843 293.415 80.4022 295.202C81.9614 296.99 84.1638 298.089 86.5298 298.26L87.8269 298.338H88.0979H88.7368V297.835L88.8723 295.84L86.8202 295.705H86.6653C84.9655 295.583 83.3828 294.795 82.2622 293.511C81.1416 292.227 80.5739 290.552 80.683 288.852L80.8379 286.509C80.87 286.138 81.0461 285.795 81.3284 285.552C81.6106 285.31 81.9767 285.188 82.348 285.212L84.9035 285.386L88.0205 285.599L88.1947 283.082L84.768 282.85L82.5222 282.695C81.4876 282.645 80.4749 283.005 79.7045 283.698C78.9341 284.39 78.4683 285.359 78.4082 286.393L78.205 288.716Z" fill="#407BFF"/>
<g opacity="0.5">
<path d="M78.205 288.716C78.0532 291.083 78.843 293.415 80.4022 295.202C81.9614 296.99 84.1638 298.089 86.5298 298.26L87.8269 298.338H88.0979H88.7368V297.835L88.8723 295.84L86.8202 295.705H86.6653C84.9655 295.583 83.3828 294.795 82.2622 293.511C81.1416 292.227 80.5739 290.552 80.683 288.852L80.8379 286.509C80.87 286.138 81.0461 285.795 81.3284 285.552C81.6106 285.31 81.9767 285.188 82.348 285.212L84.9035 285.386L88.0205 285.599L88.1947 283.082L84.768 282.85L82.5222 282.695C81.4876 282.645 80.4749 283.005 79.7045 283.698C78.9341 284.39 78.4683 285.359 78.4082 286.393L78.205 288.716Z" fill="white"/>
</g>
<path d="M84.7681 281.688V281.921C84.7681 282.231 84.7681 282.54 84.7681 282.889C84.7681 283.76 84.8261 284.612 84.9036 285.425C85.0861 288.942 85.7372 292.419 86.8396 295.763C87.1815 296.625 87.5993 297.454 88.0883 298.241L88.1464 298.357C88.6644 299.321 89.4887 300.084 90.489 300.526C90.7177 300.616 90.9596 300.668 91.2053 300.681L102.821 301.474C104.389 301.591 105.958 300.274 107.352 297.873C108.17 296.417 108.85 294.887 109.384 293.304C110.425 290.208 111.196 287.028 111.688 283.799V283.586L84.7681 281.688Z" fill="#407BFF"/>
<path opacity="0.6" d="M84.7681 281.688V281.921C84.7681 282.231 84.7681 282.54 84.7681 282.889C84.7681 283.76 84.8261 284.612 84.9036 285.425C85.0861 288.942 85.7372 292.419 86.8396 295.763C87.1815 296.625 87.5993 297.454 88.0883 298.241L88.1464 298.357C88.6644 299.321 89.4887 300.084 90.489 300.526C90.7177 300.616 90.9596 300.668 91.2053 300.681L102.821 301.474C104.389 301.591 105.958 300.274 107.352 297.873C108.17 296.417 108.85 294.887 109.384 293.304C110.425 290.208 111.196 287.028 111.688 283.799V283.586L84.7681 281.688Z" fill="white"/>
<path opacity="0.1" d="M87.8271 298.338H88.0982C88.6162 299.301 89.4405 300.064 90.4407 300.507C95.1259 300.042 102.057 298.842 107.265 297.854C108.112 296.407 108.822 294.884 109.385 293.305C105.513 293.731 95.1549 295.086 88.8048 297.893C88.5531 298.009 88.3015 298.106 88.0691 298.241C87.9847 298.263 87.9034 298.296 87.8271 298.338Z" fill="black"/>
<path d="M110.759 311.213L108.571 311.552L108.184 309.064L110.371 308.725C112.055 308.458 113.565 307.535 114.57 306.159C115.575 304.782 115.993 303.063 115.734 301.378L115.376 299.074C115.317 298.707 115.114 298.377 114.813 298.158C114.513 297.939 114.137 297.847 113.769 297.903L108.155 298.784L107.768 296.296L113.382 295.415C114.409 295.257 115.457 295.512 116.295 296.126C117.134 296.739 117.694 297.66 117.854 298.687L118.222 300.991C118.581 303.335 117.998 305.726 116.599 307.642C115.201 309.557 113.101 310.841 110.759 311.213Z" fill="#407BFF"/>
<g opacity="0.5">
<path d="M115.725 301.388C115.986 303.072 115.568 304.791 114.562 306.167C113.557 307.543 112.046 308.463 110.362 308.725H110.188L108.174 309.054L108.416 310.729L108.552 311.542L109.171 311.445L110.739 311.213C110.797 311.222 110.856 311.222 110.914 311.213C113.216 310.805 115.268 309.514 116.633 307.616C117.998 305.717 118.568 303.361 118.222 301.049L117.854 298.745C117.781 298.234 117.607 297.742 117.341 297.3C117.075 296.857 116.724 296.472 116.307 296.167C115.891 295.862 115.417 295.644 114.915 295.524C114.412 295.405 113.891 295.388 113.382 295.473L111.156 295.822L107.768 296.344L108.155 298.822L111.233 298.338L113.769 297.951C114.139 297.895 114.515 297.989 114.816 298.21C115.118 298.431 115.319 298.763 115.376 299.132L115.725 301.388Z" fill="white"/>
</g>
<path d="M106.335 314.039L94.8642 315.83C91.331 316.382 87.1202 309.48 84.4678 298.977L84.4194 298.764L111.088 294.602V294.824C111.824 305.627 109.868 313.487 106.335 314.039Z" fill="#407BFF"/>
<path opacity="0.6" d="M84.4194 298.774L84.4775 298.967C85.3255 302.601 86.5654 306.132 88.1753 309.499C90.3242 313.758 92.7249 316.159 94.8545 315.83L106.335 314.029C107.458 313.855 108.426 312.964 109.181 311.454C109.276 311.279 109.36 311.098 109.433 310.912C109.746 310.212 109.998 309.487 110.188 308.744C111.006 305.322 111.358 301.806 111.233 298.29C111.233 297.476 111.233 296.644 111.156 295.773C111.156 295.463 111.156 295.153 111.098 294.805V294.592L84.4194 298.774Z" fill="white"/>
<path opacity="0.1" d="M88.1753 309.499C90.3243 313.759 92.7249 316.159 94.8545 315.83L106.335 314.03C107.458 313.855 108.426 312.965 109.181 311.455L110.749 311.222C110.807 311.231 110.866 311.231 110.923 311.222C110.459 311.126 109.955 311.048 109.433 310.951L108.465 310.777C102.947 309.848 94.8642 308.861 88.1753 309.499Z" fill="black"/>
<path d="M89.6371 327.552H91.8538V325.035H89.6371C87.94 325.023 86.3165 324.34 85.12 323.136C83.9235 321.933 83.2508 320.305 83.2483 318.608V316.275C83.2483 315.903 83.3962 315.546 83.6594 315.282C83.9227 315.019 84.2797 314.871 84.6519 314.871H90.3341V312.354H84.6132C83.5827 312.37 82.5993 312.789 81.8751 313.522C81.1508 314.256 80.7436 315.244 80.7412 316.275V318.608C80.7437 320.971 81.6802 323.237 83.3466 324.913C85.013 326.588 87.2741 327.537 89.6371 327.552Z" fill="#407BFF"/>
<g opacity="0.5">
<path d="M89.6371 327.552H91.8538V325.035H89.6371C87.94 325.023 86.3165 324.34 85.12 323.136C83.9235 321.933 83.2508 320.305 83.2483 318.608V316.275C83.2483 315.903 83.3962 315.546 83.6594 315.282C83.9227 315.019 84.2797 314.871 84.6519 314.871H90.3341V312.354H84.6132C83.5827 312.37 82.5993 312.789 81.8751 313.522C81.1508 314.256 80.7436 315.244 80.7412 316.275V318.608C80.7437 320.971 81.6802 323.237 83.3466 324.913C85.013 326.588 87.2741 327.537 89.6371 327.552Z" fill="white"/>
</g>
<path d="M94.4384 329.663H106.054C109.636 329.663 112.772 322.2 113.721 311.416V311.203H86.7524V311.416C87.7204 322.2 90.8664 329.663 94.4384 329.663Z" fill="#407BFF"/>
<path opacity="0.6" d="M94.4384 329.663H106.054C109.636 329.663 112.772 322.2 113.721 311.416V311.203H86.7524V311.416C87.7204 322.2 90.8664 329.663 94.4384 329.663Z" fill="white"/>
<path opacity="0.4" d="M96.6064 282.54C97.7584 282.627 97.468 286.567 98.2327 287.235C98.9974 287.903 99.2878 283.692 100.246 283.982C101.204 284.273 102.289 285.086 103.237 283.014L96.6064 282.54Z" fill="black"/>
<path opacity="0.4" d="M85.5132 298.532C85.5132 298.532 86.0843 302.549 86.7522 302.597C87.4202 302.646 86.8974 299.2 87.8267 299.49C88.756 299.78 89.8789 297.922 89.8789 297.922L85.5132 298.532Z" fill="black"/>
<path d="M134.436 322.451V327.843C134.436 329.227 136.072 329.779 137.437 329.779H245.243C246.627 329.779 248.292 329.217 248.292 327.843V322.451H134.436Z" fill="#263238"/>
<path opacity="0.4" d="M134.436 322.451V327.843C134.436 329.227 136.072 329.779 137.437 329.779H245.243C246.627 329.779 248.292 329.217 248.292 327.843V322.451H134.436Z" fill="white"/>
<path opacity="0.2" d="M134.436 322.451V327.843C134.436 329.227 136.072 329.779 137.437 329.779H208.546C209.921 329.779 211.566 329.217 211.566 327.843V322.451H134.436Z" fill="black"/>
<path d="M116.402 266.433L129.238 324.648C129.47 325.581 130.004 326.412 130.757 327.01C131.509 327.609 132.439 327.942 133.4 327.959H203.513C203.954 327.953 204.388 327.844 204.78 327.641C205.172 327.438 205.511 327.147 205.771 326.789C206.03 326.432 206.203 326.019 206.274 325.584C206.346 325.148 206.315 324.702 206.184 324.28L193.358 266.51C192.932 264.574 191.083 263.664 189.196 263.664H119.064C117.128 263.683 115.986 264.535 116.402 266.433Z" fill="#263238"/>
<path opacity="0.4" d="M116.402 266.433L129.238 324.648C129.47 325.581 130.004 326.412 130.757 327.011C131.509 327.609 132.439 327.942 133.4 327.959H201.16C201.598 327.949 202.027 327.839 202.415 327.635C202.803 327.432 203.138 327.142 203.395 326.788C203.652 326.433 203.823 326.024 203.896 325.593C203.968 325.161 203.94 324.719 203.813 324.3L190.977 266.53C190.561 264.594 188.692 263.684 186.815 263.684H119.064C117.128 263.684 115.986 264.535 116.402 266.433Z" fill="white"/>
<path opacity="0.2" d="M151.008 296.025C151.008 301 156.352 305.056 160.262 305.056C164.173 305.056 166.506 301 165.393 296.025C164.28 291.049 160.379 287.158 156.545 287.003C157.658 291.988 155.267 296.025 151.366 296.025C151.247 296.037 151.127 296.037 151.008 296.025Z" fill="black"/>
<path d="M419.502 331.656H68.9795V349.022H419.502V331.656Z" fill="#263238"/>
<path opacity="0.5" d="M419.502 331.656H68.9795V349.022H419.502V331.656Z" fill="white"/>
<path d="M423.297 329.981H65.1946C64.1147 329.981 63.2393 330.857 63.2393 331.937V334.744C63.2393 335.824 64.1147 336.699 65.1946 336.699H423.297C424.376 336.699 425.252 335.824 425.252 334.744V331.937C425.252 330.857 424.376 329.981 423.297 329.981Z" fill="#263238"/>
<path opacity="0.6" d="M423.297 329.981H65.1946C64.1147 329.981 63.2393 330.857 63.2393 331.937V334.744C63.2393 335.824 64.1147 336.699 65.1946 336.699H423.297C424.376 336.699 425.252 335.824 425.252 334.744V331.937C425.252 330.857 424.376 329.981 423.297 329.981Z" fill="white"/>
<path d="M343.263 303.429H389.339V292.568H343.263V303.429Z" fill="#407BFF"/>
<path opacity="0.7" d="M343.263 303.429H389.339V292.568H343.263V303.429Z" fill="white"/>
<path d="M371.519 291.562H407.615C409.278 291.626 410.851 292.332 412.005 293.531C413.159 294.73 413.803 296.33 413.803 297.994C413.803 299.658 413.159 301.257 412.005 302.457C410.851 303.656 409.278 304.362 407.615 304.426H371.519V302.074H377.007C378.055 302.023 379.043 301.571 379.766 300.811C380.49 300.052 380.893 299.043 380.893 297.994C380.893 296.945 380.49 295.936 379.766 295.177C379.043 294.417 378.055 293.965 377.007 293.914H371.519V291.562Z" fill="#407BFF"/>
<g opacity="0.4">
<path d="M371.519 291.562H407.615C409.278 291.626 410.851 292.332 412.005 293.531C413.159 294.73 413.803 296.33 413.803 297.994C413.803 299.658 413.159 301.257 412.005 302.457C410.851 303.656 409.278 304.362 407.615 304.426H371.519V302.074H377.007C378.055 302.023 379.043 301.571 379.766 300.811C380.49 300.052 380.893 299.043 380.893 297.994C380.893 296.945 380.49 295.936 379.766 295.177C379.043 294.417 378.055 293.965 377.007 293.914H371.519V291.562Z" fill="white"/>
</g>
<path d="M340.91 291.562H377.007C378.67 291.626 380.243 292.332 381.397 293.531C382.55 294.73 383.195 296.33 383.195 297.994C383.195 299.658 382.55 301.257 381.397 302.457C380.243 303.656 378.67 304.362 377.007 304.426H340.91V302.074H377.007C378.055 302.023 379.043 301.571 379.766 300.811C380.49 300.052 380.893 299.043 380.893 297.994C380.893 296.945 380.49 295.936 379.766 295.177C379.043 294.417 378.055 293.965 377.007 293.914H340.91V291.562Z" fill="#407BFF"/>
<g opacity="0.2">
<path d="M340.91 291.562H377.007C378.67 291.626 380.243 292.332 381.397 293.531C382.55 294.73 383.195 296.33 383.195 297.994C383.195 299.658 382.55 301.257 381.397 302.457C380.243 303.656 378.67 304.362 377.007 304.426H340.91V302.074H377.007C378.055 302.023 379.043 301.571 379.766 300.811C380.49 300.052 380.893 299.043 380.893 297.994C380.893 296.945 380.49 295.936 379.766 295.177C379.043 294.417 378.055 293.965 377.007 293.914H340.91V291.562Z" fill="white"/>
</g>
<path d="M409.338 279.703H363.261V290.564H409.338V279.703Z" fill="#407BFF"/>
<path opacity="0.7" d="M409.338 279.703H363.261V290.564H409.338V279.703Z" fill="white"/>
<path d="M381.082 278.706H344.995C344.151 278.706 343.315 278.872 342.536 279.195C341.756 279.518 341.047 279.992 340.45 280.589C339.854 281.185 339.38 281.894 339.057 282.674C338.734 283.454 338.568 284.289 338.568 285.134C338.568 285.978 338.734 286.813 339.057 287.593C339.38 288.373 339.854 289.082 340.45 289.679C341.047 290.275 341.756 290.749 342.536 291.072C343.315 291.395 344.151 291.561 344.995 291.561H381.082V289.209H375.584C374.503 289.209 373.467 288.779 372.703 288.015C371.938 287.251 371.509 286.214 371.509 285.134C371.509 284.053 371.938 283.016 372.703 282.252C373.467 281.488 374.503 281.058 375.584 281.058H381.063L381.082 278.706Z" fill="#407BFF"/>
<g opacity="0.4">
<path d="M381.082 278.706H344.995C344.151 278.706 343.315 278.872 342.536 279.195C341.756 279.518 341.047 279.992 340.45 280.589C339.854 281.185 339.38 281.894 339.057 282.674C338.734 283.454 338.568 284.289 338.568 285.134C338.568 285.978 338.734 286.813 339.057 287.593C339.38 288.373 339.854 289.082 340.45 289.679C341.047 290.275 341.756 290.749 342.536 291.072C343.315 291.395 344.151 291.561 344.995 291.561H381.082V289.209H375.584C374.503 289.209 373.467 288.779 372.703 288.015C371.938 287.251 371.509 286.214 371.509 285.134C371.509 284.053 371.938 283.016 372.703 282.252C373.467 281.488 374.503 281.058 375.584 281.058H381.063L381.082 278.706Z" fill="black"/>
</g>
<path d="M411.69 278.706H375.584C373.879 278.706 372.244 279.383 371.039 280.589C369.833 281.794 369.156 283.429 369.156 285.134C369.156 286.838 369.833 288.473 371.039 289.679C372.244 290.884 373.879 291.561 375.584 291.561H411.69V289.209H375.584C374.503 289.209 373.466 288.779 372.702 288.015C371.938 287.251 371.509 286.214 371.509 285.134C371.509 284.053 371.938 283.016 372.702 282.252C373.466 281.488 374.503 281.058 375.584 281.058H411.69V278.706Z" fill="#407BFF"/>
<g opacity="0.2">
<path d="M411.69 278.706H375.584C373.879 278.706 372.244 279.383 371.039 280.589C369.833 281.794 369.156 283.429 369.156 285.134C369.156 286.838 369.833 288.473 371.039 289.679C372.244 290.884 373.879 291.561 375.584 291.561H411.69V289.209H375.584C374.503 289.209 373.466 288.779 372.702 288.015C371.938 287.251 371.509 286.214 371.509 285.134C371.509 284.053 371.938 283.016 372.702 282.252C373.466 281.488 374.503 281.058 375.584 281.058H411.69V278.706Z" fill="black"/>
</g>
<path d="M333.805 316.284H379.882V305.423H333.805V316.284Z" fill="#407BFF"/>
<path opacity="0.7" d="M333.805 316.284H379.882V305.423H333.805V316.284Z" fill="white"/>
<path d="M362.032 304.426H398.119C398.963 304.426 399.799 304.592 400.578 304.915C401.358 305.238 402.067 305.712 402.664 306.308C403.261 306.905 403.734 307.614 404.057 308.394C404.38 309.173 404.546 310.009 404.546 310.853C404.546 311.697 404.38 312.533 404.057 313.313C403.734 314.093 403.261 314.801 402.664 315.398C402.067 315.995 401.358 316.469 400.578 316.792C399.799 317.115 398.963 317.281 398.119 317.281H362.032V314.929H367.511C368.591 314.929 369.628 314.499 370.392 313.735C371.157 312.971 371.586 311.934 371.586 310.853C371.586 309.772 371.157 308.736 370.392 307.972C369.628 307.207 368.591 306.778 367.511 306.778H362.032V304.426Z" fill="#263238"/>
<g opacity="0.2">
<path d="M362.032 304.426H398.119C398.963 304.426 399.799 304.592 400.578 304.915C401.358 305.238 402.067 305.712 402.664 306.308C403.261 306.905 403.734 307.614 404.057 308.394C404.38 309.173 404.546 310.009 404.546 310.853C404.546 311.697 404.38 312.533 404.057 313.313C403.734 314.093 403.261 314.801 402.664 315.398C402.067 315.995 401.358 316.469 400.578 316.792C399.799 317.115 398.963 317.281 398.119 317.281H362.032V314.929H367.511C368.591 314.929 369.628 314.499 370.392 313.735C371.157 312.971 371.586 311.934 371.586 310.853C371.586 309.772 371.157 308.736 370.392 307.972C369.628 307.207 368.591 306.778 367.511 306.778H362.032V304.426Z" fill="white"/>
</g>
<path d="M331.443 304.426H367.54C369.245 304.426 370.88 305.103 372.085 306.308C373.29 307.514 373.968 309.149 373.968 310.853C373.968 312.558 373.29 314.193 372.085 315.398C370.88 316.604 369.245 317.281 367.54 317.281H331.443V314.929H367.54C368.621 314.929 369.657 314.499 370.422 313.735C371.186 312.971 371.615 311.934 371.615 310.853C371.615 309.772 371.186 308.736 370.422 307.972C369.657 307.207 368.621 306.778 367.54 306.778H331.443V304.426Z" fill="#263238"/>
<g opacity="0.4">
<path d="M331.443 304.426H367.54C369.245 304.426 370.88 305.103 372.085 306.308C373.29 307.514 373.968 309.149 373.968 310.853C373.968 312.558 373.29 314.193 372.085 315.398C370.88 316.604 369.245 317.281 367.54 317.281H331.443V314.929H367.54C368.621 314.929 369.657 314.499 370.422 313.735C371.186 312.971 371.615 311.934 371.615 310.853C371.615 309.772 371.186 308.736 370.422 307.972C369.657 307.207 368.621 306.778 367.54 306.778H331.443V304.426Z" fill="white"/>
</g>
<path d="M408.176 318.278H362.1V329.139H408.176V318.278Z" fill="#407BFF"/>
<path opacity="0.7" d="M408.176 318.278H362.1V329.139H408.176V318.278Z" fill="white"/>
<path d="M410.538 317.281H374.442C372.779 317.346 371.206 318.052 370.052 319.251C368.898 320.45 368.254 322.05 368.254 323.714C368.254 325.378 368.898 326.977 370.052 328.176C371.206 329.376 372.779 330.081 374.442 330.146H410.538V327.794H374.442C373.394 327.743 372.406 327.291 371.682 326.531C370.959 325.771 370.555 324.763 370.555 323.714C370.555 322.665 370.959 321.656 371.682 320.896C372.406 320.137 373.394 319.685 374.442 319.634H410.538V317.281Z" fill="#263238"/>
<path d="M379.921 317.281H343.834C342.171 317.346 340.598 318.052 339.444 319.251C338.29 320.45 337.646 322.05 337.646 323.714C337.646 325.378 338.29 326.977 339.444 328.176C340.598 329.376 342.171 330.081 343.834 330.146H379.921V327.794H374.442C373.394 327.743 372.406 327.291 371.683 326.531C370.959 325.771 370.556 324.763 370.556 323.714C370.556 322.665 370.959 321.656 371.683 320.896C372.406 320.137 373.394 319.685 374.442 319.634H379.921V317.281Z" fill="#263238"/>
<g opacity="0.4">
<path d="M410.538 317.281H374.442C372.779 317.346 371.206 318.052 370.052 319.251C368.898 320.45 368.254 322.05 368.254 323.714C368.254 325.378 368.898 326.977 370.052 328.176C371.206 329.376 372.779 330.081 374.442 330.146H410.538V327.794H374.442C373.394 327.743 372.406 327.291 371.682 326.531C370.959 325.771 370.555 324.763 370.555 323.714C370.555 322.665 370.959 321.656 371.682 320.896C372.406 320.137 373.394 319.685 374.442 319.634H410.538V317.281Z" fill="white"/>
</g>
<path d="M337.861 277.709H383.938V266.848H337.861V277.709Z" fill="#407BFF"/>
<path opacity="0.7" d="M337.861 277.709H383.938V266.848H337.861V277.709Z" fill="white"/>
<path d="M335.509 278.706H371.596C372.462 278.74 373.325 278.599 374.135 278.29C374.945 277.982 375.684 277.514 376.308 276.913C376.932 276.313 377.429 275.592 377.768 274.795C378.108 273.998 378.283 273.14 378.283 272.274C378.283 271.408 378.108 270.55 377.768 269.753C377.429 268.956 376.932 268.236 376.308 267.635C375.684 267.034 374.945 266.566 374.135 266.258C373.325 265.95 372.462 265.808 371.596 265.842H335.509V268.194H371.596C372.148 268.167 372.701 268.253 373.219 268.446C373.738 268.638 374.211 268.935 374.612 269.316C375.013 269.698 375.331 270.157 375.549 270.665C375.767 271.173 375.88 271.721 375.88 272.274C375.88 272.827 375.767 273.375 375.549 273.883C375.331 274.392 375.013 274.851 374.612 275.232C374.211 275.614 373.738 275.91 373.219 276.103C372.701 276.296 372.148 276.381 371.596 276.354H335.509V278.706Z" fill="#263238"/>
<path d="M366.117 278.707H402.213C403.876 278.642 405.449 277.936 406.603 276.737C407.757 275.538 408.401 273.938 408.401 272.274C408.401 270.61 407.757 269.011 406.603 267.811C405.449 266.612 403.876 265.906 402.213 265.842H366.117V268.194H371.596C372.148 268.167 372.7 268.253 373.219 268.446C373.737 268.638 374.211 268.935 374.612 269.316C375.012 269.698 375.331 270.157 375.549 270.665C375.767 271.174 375.879 271.721 375.879 272.274C375.879 272.827 375.767 273.375 375.549 273.883C375.331 274.392 375.012 274.851 374.612 275.232C374.211 275.614 373.737 275.91 373.219 276.103C372.7 276.296 372.148 276.381 371.596 276.354H366.117V278.707Z" fill="#263238"/>
<g opacity="0.4">
<path d="M335.509 278.706H371.596C372.462 278.74 373.325 278.599 374.135 278.29C374.945 277.982 375.684 277.514 376.308 276.913C376.932 276.313 377.429 275.592 377.768 274.795C378.108 273.998 378.283 273.14 378.283 272.274C378.283 271.408 378.108 270.55 377.768 269.753C377.429 268.956 376.932 268.236 376.308 267.635C375.684 267.034 374.945 266.566 374.135 266.258C373.325 265.95 372.462 265.808 371.596 265.842H335.509V268.194H371.596C372.148 268.167 372.701 268.253 373.219 268.446C373.738 268.638 374.211 268.935 374.612 269.316C375.013 269.698 375.331 270.157 375.549 270.665C375.767 271.173 375.88 271.721 375.88 272.274C375.88 272.827 375.767 273.375 375.549 273.883C375.331 274.392 375.013 274.851 374.612 275.232C374.211 275.614 373.738 275.91 373.219 276.103C372.701 276.296 372.148 276.381 371.596 276.354H335.509V278.706Z" fill="white"/>
</g>
<g opacity="0.2">
<path d="M333.795 307.814L367.24 308.173L333.795 308.54V307.814Z" fill="black"/>
<path d="M333.795 309.596L356.04 309.964L333.795 310.322V309.596Z" fill="black"/>
<path d="M333.795 311.387L370.366 311.745L333.795 312.113V311.387Z" fill="black"/>
<path d="M333.795 313.167L365.352 313.525L333.795 313.893V313.167Z" fill="black"/>
</g>
<g opacity="0.2">
<path d="M343.263 294.949L376.707 295.317L343.263 295.675V294.949Z" fill="black"/>
<path d="M343.263 296.74L365.507 297.098L343.263 297.466V296.74Z" fill="black"/>
<path d="M343.263 298.521L379.824 298.889L343.263 299.247V298.521Z" fill="black"/>
<path d="M343.263 300.312L374.81 300.67L343.263 301.038V300.312Z" fill="black"/>
</g>
<g opacity="0.2">
<path d="M337.755 269.229L371.209 269.597L337.755 269.955V269.229Z" fill="black"/>
<path d="M337.755 271.021L360 271.379L337.755 271.747V271.021Z" fill="black"/>
<path d="M337.755 272.802L374.326 273.17L337.755 273.528V272.802Z" fill="black"/>
<path d="M337.755 274.592L369.312 274.95L337.755 275.318V274.592Z" fill="black"/>
</g>
<g opacity="0.2">
<path d="M408.089 326.797L374.645 326.429L408.089 326.071V326.797Z" fill="black"/>
<path d="M408.089 325.006L385.845 324.648L408.089 324.28V325.006Z" fill="black"/>
<path d="M408.089 323.225L371.528 322.867L408.089 322.499V323.225Z" fill="black"/>
<path d="M408.089 321.444L376.533 321.076L408.089 320.718V321.444Z" fill="black"/>
</g>
<g opacity="0.2">
<path d="M409.348 288.174L375.894 287.806L409.348 287.448V288.174Z" fill="black"/>
<path d="M409.348 286.393L387.104 286.025L409.348 285.667V286.393Z" fill="black"/>
<path d="M409.348 284.602L372.777 284.244L409.348 283.876V284.602Z" fill="black"/>
<path d="M409.348 282.821L377.792 282.453L409.348 282.095V282.821Z" fill="black"/>
</g>
<path d="M339.826 323.389C339.826 323.389 326.468 316.681 319.101 316.487H249.608L253.868 329.807L283.624 328.771L338.568 327.968L339.826 323.389Z" fill="#407BFF"/>
<path opacity="0.7" d="M339.826 323.389C339.826 323.389 326.468 316.681 319.101 316.487H249.608L253.868 329.807L283.624 328.771L338.568 327.968L339.826 323.389Z" fill="white"/>
<path d="M230.868 324.048C230.868 324.048 238.699 317.533 248.185 316.584C257.672 315.636 260.992 323.089 260.992 323.089C260.992 323.089 265.503 316.885 272.608 316.497C279.713 316.11 294.272 323.389 294.272 323.389L293.062 327.968L231.632 328.868L230.868 324.048Z" fill="#407BFF"/>
<path opacity="0.6" d="M230.868 324.048C230.868 324.048 238.699 317.533 248.185 316.584C257.672 315.636 260.992 323.089 260.992 323.089C260.992 323.089 265.503 316.885 272.608 316.497C279.713 316.11 294.272 323.389 294.272 323.389L293.062 327.968L231.632 328.868L230.868 324.048Z" fill="white"/>
<path opacity="0.2" d="M339.826 323.39L339.584 324.29L339.429 324.861L338.596 327.968H293.013L293.536 325.984L293.71 325.384L294.233 323.39H339.826Z" fill="black"/>
<g opacity="0.2">
<path d="M293.014 323.931C290.371 322.77 287.666 321.755 284.911 320.892C282.193 319.96 279.378 319.343 276.519 319.053C273.663 318.904 270.817 319.49 268.252 320.756C265.653 321.957 263.222 323.493 261.021 325.325L260.789 325.509L260.595 325.287C258.861 323.302 256.769 321.66 254.429 320.447C253.259 319.836 252.007 319.4 250.712 319.149C249.43 318.935 248.122 318.935 246.84 319.149C244.23 319.66 241.686 320.468 239.261 321.56C236.798 322.589 234.396 323.759 232.068 325.064C234.341 323.706 236.687 322.474 239.096 321.376C241.527 320.22 244.083 319.349 246.714 318.782C248.053 318.514 249.428 318.478 250.78 318.675C252.126 318.926 253.429 319.366 254.652 319.982C257.073 321.223 259.238 322.911 261.031 324.957H260.605C262.853 323.093 265.34 321.537 268.001 320.33C270.653 319.04 273.595 318.463 276.538 318.656C279.422 319.012 282.257 319.69 284.989 320.679C287.723 321.612 290.402 322.698 293.014 323.931Z" fill="black"/>
</g>
<g opacity="0.2">
<path d="M232.533 325.674C234.78 324.633 237.096 323.747 239.464 323.021C241.839 322.284 244.285 321.801 246.762 321.579C249.264 321.382 251.782 321.631 254.197 322.315C256.614 322.972 258.904 324.029 260.973 325.441H260.663C263.106 324.313 265.642 323.396 268.242 322.702C270.832 321.921 273.537 321.594 276.238 321.734C278.91 321.982 281.562 322.412 284.176 323.021C286.757 323.628 289.338 324.322 291.92 325.103C289.335 324.425 286.731 323.825 284.108 323.322C281.505 322.763 278.865 322.391 276.209 322.208C273.566 322.095 270.923 322.423 268.387 323.176C265.83 323.888 263.334 324.804 260.924 325.916L260.76 325.984L260.614 325.887C258.608 324.494 256.379 323.453 254.022 322.809C251.665 322.132 249.211 321.858 246.762 321.995C244.308 322.167 241.879 322.592 239.512 323.263C237.135 323.912 234.803 324.717 232.533 325.674Z" fill="black"/>
</g>
<g opacity="0.2">
<path d="M235.611 325.674C239.759 324.728 244.009 324.296 248.263 324.387C250.394 324.405 252.522 324.563 254.632 324.861C256.743 325.148 258.834 325.562 260.895 326.1H260.769C263.141 325.674 265.532 325.403 267.923 325.132C270.314 324.861 272.705 324.716 275.115 324.639C277.525 324.561 279.955 324.59 282.317 324.716C284.713 324.887 287.096 325.21 289.451 325.684C284.709 325.018 279.912 324.84 275.134 325.152C270.357 325.394 265.596 325.904 260.876 326.681H260.74C258.706 326.129 256.641 325.702 254.555 325.403C252.466 325.101 250.362 324.911 248.253 324.832C246.139 324.748 244.023 324.781 241.913 324.929C239.798 325.037 237.692 325.286 235.611 325.674Z" fill="black"/>
</g>
<g opacity="0.2">
<path d="M339.584 324.29L339.429 324.861L295.743 324.58L339.584 324.29Z" fill="black"/>
</g>
<g opacity="0.2">
<path d="M335.354 325.684L293.536 325.984L293.71 325.384L335.354 325.684Z" fill="black"/>
</g>
<path d="M259.095 327.184C259.095 327.184 259.327 323.477 261.031 323.138C262.734 322.799 262.589 327.184 262.589 327.184H259.095Z" fill="#263238"/>
<path d="M341.868 326.381H228.002V329.982H341.868V326.381Z" fill="#263238"/>
<path opacity="0.2" d="M341.868 326.381H228.002V329.982H341.868V326.381Z" fill="white"/>
<path opacity="0.2" d="M341.878 326.381H296.333V329.982H341.878V326.381Z" fill="black"/>
<path d="M329.168 333.554L326.264 325.694L329.168 319.363H334.783L340.242 312.8H347.831C349.264 312.8 355.575 317.427 355.575 317.427C355.575 317.427 355.072 322.015 355.575 322.557C356.079 323.099 358.799 325.694 358.799 325.694L356.524 327.63V332.024L355.556 333.776L347.812 333.292C346.758 332.952 345.623 332.952 344.569 333.292C342.633 333.844 341.133 336.516 339.729 335.858C338.325 335.199 329.168 333.554 329.168 333.554Z" fill="#407BFF"/>
<path opacity="0.7" d="M358.798 325.703L356.533 327.639V332.024L355.565 333.786L347.821 333.292C346.768 332.946 345.632 332.946 344.579 333.292C342.643 333.854 341.142 336.516 339.739 335.867C338.335 335.219 329.149 333.554 329.149 333.554L326.245 325.713L329.149 319.373H334.763L340.223 312.81H347.812C349.235 312.81 355.556 317.427 355.556 317.427C355.361 319.033 355.325 320.654 355.449 322.267C355.468 322.36 355.504 322.449 355.556 322.528C356.078 323.099 358.798 325.703 358.798 325.703Z" fill="white"/>
<path opacity="0.4" d="M355.459 322.344L353.262 317.504L349.177 323.825L346.273 322.509V316.555L340.31 318.85L341.162 323.825L339.381 327.697L332.305 321.347L330.601 325.916L326.264 325.78L329.168 319.44H334.783L340.242 312.877H347.831C349.254 312.877 355.575 317.494 355.575 317.494C355.377 319.103 355.338 320.728 355.459 322.344Z" fill="white"/>
<path opacity="0.1" d="M329.168 333.544L332.682 332.702V324.91L339.555 330.718L343.427 321.764L345.527 325.258L350.125 325.694L353.029 322.703L354.559 324.222L352.913 327.194L354.559 328.375L356.553 327.61L354.288 329.12L352.352 327.998L350.145 326.458L344.917 325.665L343.088 328.152L344.714 329.75L344.55 327.204L348.47 331.908L350.116 329.159L347.502 328.656L350.677 328.588L351.074 329.459L348.751 332.363C348.751 332.363 344.714 330.708 344.946 330.698C345.179 330.689 340.92 334.483 340.92 334.483L335.692 332.673L335.634 328.414L333.534 333.254L329.168 333.718" fill="black"/>
<path d="M214.335 326.429L214.141 326.526L213.638 326.836C213.536 326.882 213.439 326.937 213.347 327L212.699 327.417C212.596 327.464 212.498 327.522 212.408 327.591L211.769 327.997C211.227 328.327 210.637 328.694 210.075 329.072C209.959 329.149 209.833 329.207 209.727 329.295C209.62 329.382 209.272 329.595 209.059 329.74L208.73 329.953C207.943 330.429 207.207 330.983 206.533 331.608C206.46 331.693 206.371 331.762 206.271 331.811C206.214 331.822 206.155 331.822 206.097 331.811H205.768C205.172 331.687 204.6 331.468 204.074 331.163C203.299 330.719 202.443 330.436 201.557 330.33C200.587 330.265 199.63 330.585 198.895 331.221L192.729 333.835L191.257 332.354L189.554 327.997L186.94 326.729C186.94 326.729 187.25 325.907 187.579 324.977C187.666 324.764 187.744 324.522 187.84 324.3C187.872 324.181 187.911 324.065 187.957 323.951C188.073 323.622 188.179 323.332 188.247 323.109L188.383 322.722C188.387 322.687 188.387 322.651 188.383 322.615C188.383 322.567 188.383 322.499 188.383 322.431C188.245 321.878 188.061 321.337 187.831 320.815C187.56 320.147 187.24 319.431 186.969 318.879C186.892 318.695 186.805 318.521 186.727 318.366C186.723 318.329 186.706 318.295 186.679 318.269C186.553 317.998 186.466 317.814 186.417 317.727C186.621 317.34 189.825 311.396 190.967 311.038L197.211 308.947L198.798 310.07L204.238 313.942L208.856 312.403L213.696 317.882L214.335 326.429Z" fill="#407BFF"/>
<path opacity="0.7" d="M214.315 326.439L214.131 326.565L213.628 326.875C213.527 326.921 213.429 326.976 213.337 327.04L212.689 327.456C212.586 327.503 212.489 327.561 212.399 327.63C212.198 327.746 211.986 327.882 211.76 328.037C211.218 328.366 210.627 328.734 210.066 329.111C209.949 329.188 209.824 329.247 209.717 329.334C209.611 329.421 209.262 329.634 209.049 329.779L208.72 329.992C207.933 330.468 207.197 331.022 206.523 331.647C206.45 331.732 206.361 331.801 206.261 331.85C206.204 331.861 206.145 331.861 206.087 331.85H205.758C205.162 331.726 204.59 331.507 204.064 331.202C203.289 330.758 202.434 330.475 201.547 330.369C200.577 330.304 199.621 330.624 198.885 331.26L192.719 333.874L191.248 332.393L189.544 328.037L186.93 326.768C186.93 326.768 187.24 325.946 187.569 325.016C187.656 324.803 187.734 324.561 187.831 324.339C187.862 324.22 187.901 324.104 187.947 323.99C188.053 323.661 188.17 323.371 188.237 323.148L188.373 322.761C188.378 322.726 188.378 322.69 188.373 322.654C188.373 322.606 188.373 322.538 188.373 322.471C188.235 321.917 188.051 321.376 187.821 320.854C187.55 320.186 187.231 319.47 186.959 318.918C186.882 318.734 186.795 318.56 186.717 318.405C186.714 318.368 186.696 318.334 186.669 318.308C186.543 318.037 186.456 317.853 186.408 317.766C186.611 317.379 189.815 311.435 190.957 311.077L197.201 308.986L198.788 310.109L204.229 313.981L208.836 312.442L213.676 317.902L214.315 326.439Z" fill="white"/>
<path opacity="0.4" d="M214.334 326.429L209.814 325.829L211.856 317.872L207.336 319.034L204.916 314.949L200.318 313.284L204.509 318.53L201.789 322.006L192.729 314.262L194.5 320.282L186.398 317.717C186.601 317.33 189.805 311.387 190.948 311.028L197.191 308.938L198.779 310.06L204.219 313.932L208.836 312.393L213.676 317.872L214.334 326.429Z" fill="white"/>
<path opacity="0.1" d="M201.547 330.427C200.577 330.362 199.621 330.682 198.885 331.318L192.719 333.931L191.248 332.45L189.544 328.094L186.931 326.826C186.931 326.826 187.24 326.004 187.57 325.074C187.657 324.861 187.734 324.619 187.831 324.397C187.862 324.278 187.901 324.162 187.947 324.048C188.054 323.719 188.17 323.429 188.237 323.206L188.373 322.819L197.559 323.864L197.308 321.328L202.148 325.123L197.191 326.362L197.395 328.607H200.647L201.547 330.427Z" fill="black"/>
<path opacity="0.1" d="M206.029 331.898H205.758C205.162 331.774 204.59 331.555 204.064 331.25C203.289 330.806 202.433 330.523 201.547 330.417L205.961 327.513L205.216 323.312L208.788 322.944C208.788 322.944 207.239 327.446 207.5 327.552C207.761 327.659 205.777 331.802 206.029 331.898Z" fill="black"/>
<path d="M164.753 323.525L164.811 323.641L164.966 323.98C165.004 324.041 165.037 324.106 165.063 324.174L165.257 324.619C165.296 324.679 165.325 324.744 165.344 324.812L165.537 325.248C165.702 325.616 165.886 326.013 166.041 326.419C166.082 326.497 166.118 326.578 166.147 326.661C166.215 326.806 166.283 326.971 166.341 327.116L166.438 327.349C166.683 327.877 166.874 328.428 167.009 328.994C167.011 329.067 167.034 329.138 167.077 329.197C167.096 329.226 167.119 329.252 167.144 329.275C167.184 329.321 167.234 329.357 167.29 329.381C167.644 329.529 168.02 329.618 168.403 329.643C168.966 329.687 169.516 329.841 170.019 330.098C170.548 330.407 170.934 330.911 171.094 331.501L173.398 335.054L174.695 334.792L177.124 333.118L178.944 333.379L179.225 332.237C179.225 332.092 179.302 331.937 179.331 331.782C179.36 331.71 179.382 331.635 179.399 331.559C179.399 331.346 179.496 331.162 179.544 331.017C179.593 330.872 179.593 330.824 179.612 330.766C179.608 330.746 179.608 330.727 179.612 330.708C179.636 330.68 179.659 330.651 179.68 330.62C179.949 330.381 180.237 330.164 180.541 329.972C180.919 329.71 181.345 329.449 181.693 329.236C181.79 329.168 181.906 329.11 182.003 329.052C182.1 328.994 182.003 329.052 182.061 329.052L182.381 328.859C182.381 328.588 182.826 324.338 182.381 323.748L179.932 320.408H178.693L174.482 320.505L172.604 318.065L168.141 319.227L164.753 323.525Z" fill="#407BFF"/>
<path opacity="0.7" d="M164.763 323.535C164.766 323.577 164.766 323.619 164.763 323.661L164.918 323.999C164.956 324.061 164.989 324.126 165.015 324.193L165.208 324.638C165.247 324.698 165.277 324.763 165.296 324.832C165.368 324.974 165.432 325.119 165.489 325.267C165.654 325.635 165.838 326.032 165.993 326.439C166.034 326.517 166.069 326.598 166.099 326.681C166.167 326.826 166.235 326.99 166.293 327.136L166.389 327.368C166.634 327.896 166.826 328.447 166.961 329.014C166.962 329.087 166.986 329.157 167.028 329.217C167.048 329.245 167.071 329.271 167.096 329.294C167.136 329.34 167.186 329.377 167.241 329.401C167.595 329.549 167.972 329.637 168.354 329.662C168.918 329.706 169.467 329.861 169.971 330.117C170.499 330.426 170.885 330.93 171.045 331.521L173.349 335.073L174.646 334.812L177.076 333.137L178.896 333.399L179.177 332.256C179.177 332.111 179.254 331.956 179.283 331.801C179.312 331.729 179.334 331.655 179.351 331.579C179.409 331.376 179.448 331.182 179.496 331.037C179.545 330.892 179.545 330.843 179.564 330.785C179.56 330.766 179.56 330.746 179.564 330.727C179.588 330.699 179.611 330.67 179.632 330.64C179.9 330.4 180.189 330.183 180.493 329.991C180.871 329.73 181.297 329.469 181.645 329.256C181.742 329.188 181.858 329.13 181.955 329.072C182.052 329.014 181.955 329.072 182.013 329.072L182.332 328.878C182.332 328.607 182.778 324.358 182.332 323.767L179.932 320.408H178.693L174.482 320.515L172.604 318.075L168.141 319.227L164.763 323.535Z" fill="white"/>
<path opacity="0.4" d="M164.753 323.525L167.338 324.803L169.08 319.914L171.016 322.121L173.727 320.834L176.728 321.589L172.672 322.857L172.865 325.645L180.348 324.793L177.299 327.32L182.448 328.839C182.448 328.568 182.894 324.319 182.448 323.728L179.932 320.408H178.693L174.482 320.505L172.604 318.065L168.141 319.227L164.753 323.525Z" fill="white"/>
<path opacity="0.1" d="M170.048 330.137C170.577 330.445 170.963 330.949 171.123 331.54L173.427 335.093L174.724 334.831L177.153 333.157L178.973 333.418L179.254 332.276C179.254 332.131 179.331 331.976 179.36 331.821C179.389 331.749 179.411 331.674 179.428 331.598C179.486 331.395 179.525 331.201 179.573 331.056C179.622 330.911 179.622 330.863 179.641 330.804L174.453 328.152L175.479 326.913L171.607 327.184L173.756 329.585L172.865 330.688L171.171 329.527L170.048 330.137Z" fill="black"/>
<path opacity="0.1" d="M167.174 329.314C167.214 329.36 167.263 329.396 167.319 329.42C167.673 329.568 168.049 329.657 168.432 329.682C168.996 329.726 169.545 329.88 170.049 330.137L168.742 327.078L170.678 325.084L168.945 323.632C168.71 324.627 168.386 325.599 167.977 326.536C167.784 326.458 167.338 329.362 167.174 329.314Z" fill="black"/>
</svg>
